/* XPM */
static char * OpenLieroX_xpm[] = {
"32 32 249 2",
"  	c None",
". 	c #090910",
"+ 	c #000006",
"@ 	c #000004",
"# 	c #000002",
"$ 	c #010102",
"% 	c #010101",
"& 	c #0C0C0C",
"* 	c #030303",
"= 	c #020213",
"- 	c #00000E",
"; 	c #00000D",
"> 	c #00000B",
", 	c #000009",
"' 	c #000008",
") 	c #000003",
"! 	c #000001",
"~ 	c #75737D",
"{ 	c #96959B",
"] 	c #8F8F97",
"^ 	c #818089",
"/ 	c #6C6C76",
"( 	c #4A4A55",
"_ 	c #181826",
": 	c #00000A",
"< 	c #05050B",
"[ 	c #151510",
"} 	c #181813",
"| 	c #858287",
"1 	c #CAC8C8",
"2 	c #D1D0D0",
"3 	c #D8D7D7",
"4 	c #DEDDDD",
"5 	c #E4E3E3",
"6 	c #E8E8E8",
"7 	c #CECDD0",
"8 	c #94949C",
"9 	c #343442",
"0 	c #00000F",
"a 	c #020210",
"b 	c #0B0B07",
"c 	c #0C0C08",
"d 	c #0F0F0A",
"e 	c #11110C",
"f 	c #14140D",
"g 	c #22221E",
"h 	c #303037",
"i 	c #3E3D4E",
"j 	c #5F5E72",
"k 	c #8E8D99",
"l 	c #BDBDC3",
"m 	c #E7E7E7",
"n 	c #EFEFEF",
"o 	c #F3F3F3",
"p 	c #ECECEC",
"q 	c #B4B4B9",
"r 	c #393948",
"s 	c #050504",
"t 	c #060604",
"u 	c #090906",
"v 	c #0B0B08",
"w 	c #0E0E09",
"x 	c #10100B",
"y 	c #13130D",
"z 	c #15150F",
"A 	c #191918",
"B 	c #0F0F1D",
"C 	c #0A0A23",
"D 	c #181838",
"E 	c #6B6B7F",
"F 	c #C0C0C7",
"G 	c #E6E6E6",
"H 	c #CACACB",
"I 	c #A4A4A6",
"J 	c #797981",
"K 	c #020201",
"L 	c #030302",
"M 	c #080805",
"N 	c #472F2B",
"O 	c #91817E",
"P 	c #8E8E8D",
"Q 	c #848483",
"R 	c #6F6F6E",
"S 	c #574F4E",
"T 	c #403835",
"U 	c #343436",
"V 	c #2F2F35",
"W 	c #3E3E4A",
"X 	c #84848D",
"Y 	c #99999C",
"Z 	c #909097",
"` 	c #C57973",
" .	c #F6D6D3",
"..	c #FBFBFB",
"+.	c #FAFAFA",
"@.	c #F9F9F9",
"#.	c #F6DEDC",
"$.	c #EDD4D1",
"%.	c #DFE0E1",
"&.	c #C6C7C8",
"*.	c #939493",
"=.	c #514A45",
"-.	c #28251E",
";.	c #1D1D16",
">.	c #D3847C",
",.	c #FCCFCB",
"'.	c #FFFFFF",
").	c #FEFEFE",
"!.	c #FDDAD7",
"~.	c #FDF1EF",
"{.	c #F1BAB5",
"].	c #835951",
"^.	c #1A1A12",
"/.	c #1C1C14",
"(.	c #DF8D85",
"_.	c #FBBFB8",
":.	c #969696",
"<.	c #939192",
"[.	c #FCCDC9",
"}.	c #CEC9C9",
"|.	c #949494",
"1.	c #EBEBEB",
"2.	c #FCEFED",
"3.	c #EC9F98",
"4.	c #7C4F48",
"5.	c #171710",
"6.	c #1B1B13",
"7.	c #1D1D15",
"8.	c #E0918A",
"9.	c #FCB3AC",
"0.	c #FCDEDA",
"a.	c #444345",
"b.	c #434040",
"c.	c #FBBBB5",
"d.	c #817A79",
"e.	c #303032",
"f.	c #CDCBCC",
"g.	c #F8BDB9",
"h.	c #E3948C",
"i.	c #482F2A",
"j.	c #161610",
"k.	c #DF9089",
"l.	c #F7C2BC",
"m.	c #F7D1CD",
"n.	c #F8DCD9",
"o.	c #DCC9C7",
"p.	c #FBC4BE",
"q.	c #EFA29B",
"r.	c #DA8881",
"s.	c #CF340E",
"t.	c #A34D30",
"u.	c #FAB1AA",
"v.	c #E6978F",
"w.	c #D98780",
"x.	c #DA421E",
"y.	c #A65131",
"z.	c #943D22",
"A.	c #812911",
"B.	c #822A16",
"C.	c #AA3726",
"D.	c #F37870",
"E.	c #FAA8A1",
"F.	c #F2A59E",
"G.	c #DD8B83",
"H.	c #D68577",
"I.	c #CB8C7F",
"J.	c #CC9B99",
"K.	c #CE9794",
"L.	c #E0A39F",
"M.	c #E7A59F",
"N.	c #E89A92",
"O.	c #D6847B",
"P.	c #D08D89",
"Q.	c #F3A9A2",
"R.	c #DF8E87",
"S.	c #D9827D",
"T.	c #C0BDC2",
"U.	c #AD7B7F",
"V.	c #D0534E",
"W.	c #E98C86",
"X.	c #E9837E",
"Y.	c #D96766",
"Z.	c #C09092",
"`.	c #9C7A85",
" +	c #48485B",
".+	c #BCBBBE",
"++	c #B95B6B",
"@+	c #E3717C",
"#+	c #D53342",
"$+	c #CCA9AE",
"%+	c #9F9FA2",
"&+	c #00001D",
"*+	c #939299",
"=+	c #CEC6C8",
"-+	c #F8B3C2",
";+	c #DAB4BB",
">+	c #A4A1A2",
",+	c #0A0423",
"'+	c #1E1E2E",
")+	c #A6A6A8",
"!+	c #D9D3D2",
"~+	c #C6BFBF",
"{+	c #080813",
"]+	c #000015",
"^+	c #352239",
"/+	c #56555F",
"(+	c #0D0C12",
"_+	c #A2A2A2",
":+	c #100F15",
"<+	c #000011",
"[+	c #110721",
"}+	c #3B1835",
"|+	c #676768",
"1+	c #00000C",
"2+	c #000016",
"3+	c #23112F",
"4+	c #491F3D",
"5+	c #000017",
"6+	c #6C6C70",
"7+	c #000012",
"8+	c #00001C",
"9+	c #1A1230",
"0+	c #321B3B",
"a+	c #000019",
"b+	c #949498",
"c+	c #000018",
"d+	c #000022",
"e+	c #00001A",
"f+	c #A0A0AA",
"g+	c #00001E",
"h+	c #000024",
"i+	c #01011C",
"j+	c #2B2B3D",
"k+	c #00001F",
"l+	c #0B0828",
"m+	c #543741",
"n+	c #0F0919",
"o+	c #000013",
"p+	c #020115",
"q+	c #493542",
"r+	c #D7867E",
"s+	c #CA736B",
"t+	c #C6736B",
"u+	c #C7736C",
"v+	c #E69790",
"w+	c #E4958E",
"x+	c #E89992",
"y+	c #FBB0A9",
"z+	c #FAB0A9",
"                                                                ",
"                        . + @ # $ % & *                         ",
"                      = - ; > , ' + @ ) !                       ",
"                    ~ { ] ^ / ( _ ; > : ' <                     ",
"            [ }     | 1 2 3 4 5 6 7 8 9 0 a                     ",
"          b c d e f g h i j k l m n o p q r                     ",
"          s t u v w x y z A B C D E F G H I J                   ",
"            K L t M N O P Q R S T U V W X Y Z                   ",
"              % % K `  ...+.@.#.$.%.&.*.=.-.;.                  ",
"                  * >.,.'.).).!.~.'.'...{.].^.^.^./.            ",
"                    (._.).:.<.[.}.|.1.2.3.4.5.^.6.7.            ",
"                    8.9.0.a.b.c.d.e.f.g.h.i.j.                  ",
"                    k.9.9.l.m.9.n.o.p.q.r.                      ",
"              s.t.  r.9.9.9.9.9.9.9.u.v.w.                      ",
"              x.y.z.A.B.C.D.E.9.9.9.F.G.                        ",
"                      H.I.J.K.L.M.9.N.O.                        ",
"                        P.9.9.9.9.Q.R.S.                        ",
"                        T.U.V.W.X.Y.Z.`.                        ",
"                         +.+++@+#+$+%+                          ",
"                        &+*+=+-+;+>+0                           ",
"                        ,+'+)+!+~+{+]+                          ",
"                        ^+/+(+_+:+<+[+                          ",
"                        }+]+' |+1+2+3+                          ",
"                        4+5+: 6+7+8+9+                          ",
"                        0+a+1+b+c+d+                            ",
"                          e+; f+g+h+                            ",
"                          i+<+j+k+l+                            ",
"                          m+n+o+p+q+                            ",
"                          r+s+t+u+                              ",
"                            v+w+x+                              ",
"                            y+z+                                ",
"                                                                "};
