<?xml version="1.0" encoding="UTF-8" standalone="no"?>
<!-- Generator: Adobe Illustrator 12.0.0, SVG Export Plug-In . SVG Version: 6.00 Build 51448)  -->
<svg
   xmlns:dc="http://purl.org/dc/elements/1.1/"
   xmlns:cc="http://web.resource.org/cc/"
   xmlns:rdf="http://www.w3.org/1999/02/22-rdf-syntax-ns#"
   xmlns:svg="http://www.w3.org/2000/svg"
   xmlns="http://www.w3.org/2000/svg"
   xmlns:xlink="http://www.w3.org/1999/xlink"
   xmlns:sodipodi="http://sodipodi.sourceforge.net/DTD/sodipodi-0.dtd"
   xmlns:inkscape="http://www.inkscape.org/namespaces/inkscape"
   version="1.0"
   width="256"
   height="256"
   viewBox="0 0 391.671 682.792"
   overflow="visible"
   enable-background="new 0 0 391.671 682.792"
   xml:space="preserve"
   id="svg2178"
   sodipodi:version="0.32"
   inkscape:version="0.45.1"
   sodipodi:docname="IfyouDontLikeItThenIWillEatYourSoul.svg"
   inkscape:output_extension="org.inkscape.output.svg.inkscape"
   sodipodi:docbase="G:\Icons"><metadata
   id="metadata2261"><rdf:RDF><cc:Work
       rdf:about=""><dc:format>image/svg+xml</dc:format><dc:type
         rdf:resource="http://purl.org/dc/dcmitype/StillImage" /></cc:Work></rdf:RDF></metadata><defs
   id="defs2259"><linearGradient
     inkscape:collect="always"
     id="linearGradient5287"><stop
       style="stop-color:#db857b;stop-opacity:1"
       offset="0"
       id="stop5289" /><stop
       style="stop-color:#c76d61;stop-opacity:0;"
       offset="1"
       id="stop5291" /></linearGradient><linearGradient
     inkscape:collect="always"
     id="linearGradient4308"><stop
       style="stop-color:#c76d61;stop-opacity:1;"
       offset="0"
       id="stop4310" /><stop
       style="stop-color:#c76d61;stop-opacity:0;"
       offset="1"
       id="stop4312" /></linearGradient><linearGradient
     id="linearGradient3329"><stop
       style="stop-color:#000000;stop-opacity:1;"
       offset="0"
       id="stop3331" /><stop
       style="stop-color:#ffffff;stop-opacity:0;"
       offset="1"
       id="stop3333" /></linearGradient><linearGradient
     id="linearGradient2346"><stop
       style="stop-color:#2f3c3f;stop-opacity:1;"
       offset="0"
       id="stop2348" /><stop
       style="stop-color:#000000;stop-opacity:0.26804122;"
       offset="1"
       id="stop2350" /></linearGradient><linearGradient
     inkscape:collect="always"
     id="linearGradient14235"><stop
       style="stop-color:#c76d61;stop-opacity:1;"
       offset="0"
       id="stop14237" /><stop
       style="stop-color:#c76d61;stop-opacity:0;"
       offset="1"
       id="stop14239" /></linearGradient><linearGradient
     inkscape:collect="always"
     id="linearGradient13256"><stop
       style="stop-color:#c76d61;stop-opacity:1;"
       offset="0"
       id="stop13258" /><stop
       style="stop-color:#c76d61;stop-opacity:0;"
       offset="1"
       id="stop13260" /></linearGradient><linearGradient
     id="linearGradient12275"><stop
       style="stop-color:#000044;stop-opacity:1;"
       offset="0"
       id="stop12277" /><stop
       style="stop-color:#c76d61;stop-opacity:0;"
       offset="1"
       id="stop12279" /></linearGradient><linearGradient
     id="linearGradient11296"><stop
       style="stop-color:#000000;stop-opacity:1;"
       offset="0"
       id="stop11298" /><stop
       style="stop-color:#000000;stop-opacity:0;"
       offset="1"
       id="stop11300" /></linearGradient><linearGradient
     id="linearGradient11274"><stop
       style="stop-color:#1d4964;stop-opacity:1;"
       offset="0"
       id="stop11276" /><stop
       style="stop-color:#5786ff;stop-opacity:1;"
       offset="1"
       id="stop11278" /></linearGradient><linearGradient
     id="linearGradient11258"><stop
       style="stop-color:#6e6c71;stop-opacity:1;"
       offset="0"
       id="stop11260" /><stop
       style="stop-color:#ece9e7;stop-opacity:0;"
       offset="1"
       id="stop11262" /></linearGradient><linearGradient
     id="linearGradient11250"><stop
       style="stop-color:#a8a6a3;stop-opacity:1;"
       offset="0"
       id="stop11252" /><stop
       style="stop-color:#747676;stop-opacity:1;"
       offset="1"
       id="stop11254" /></linearGradient><linearGradient
     id="linearGradient11242"><stop
       style="stop-color:#c5c3c8;stop-opacity:1;"
       offset="0"
       id="stop11244" /><stop
       style="stop-color:#8b9391;stop-opacity:1;"
       offset="1"
       id="stop11246" /></linearGradient><linearGradient
     id="linearGradient10265"><stop
       style="stop-color:#c76d61;stop-opacity:1"
       offset="0"
       id="stop10267" /><stop
       style="stop-color:#e38a81;stop-opacity:0;"
       offset="1"
       id="stop10269" /></linearGradient><linearGradient
     id="linearGradient9274"><stop
       id="stop9276"
       offset="0"
       style="stop-color:#c56457;stop-opacity:1;" /><stop
       id="stop9278"
       offset="1"
       style="stop-color:#ccc3be;stop-opacity:0;" /></linearGradient><linearGradient
     id="linearGradient8293"><stop
       style="stop-color:#000000;stop-opacity:1;"
       offset="0"
       id="stop8295" /><stop
       style="stop-color:#575c59;stop-opacity:0;"
       offset="1"
       id="stop8297" /></linearGradient><linearGradient
     id="linearGradient7310"><stop
       style="stop-color:#050000;stop-opacity:1;"
       offset="0"
       id="stop7312" /><stop
       style="stop-color:#f19f98;stop-opacity:0;"
       offset="1"
       id="stop7314" /></linearGradient><linearGradient
     id="linearGradient7296"><stop
       style="stop-color:#f19f98;stop-opacity:1"
       offset="0"
       id="stop7298" /><stop
       style="stop-color:#f19f98;stop-opacity:1"
       offset="1"
       id="stop7300" /></linearGradient><linearGradient
     inkscape:collect="always"
     id="linearGradient6317"><stop
       style="stop-color:#e08179;stop-opacity:1;"
       offset="0"
       id="stop6319" /><stop
       style="stop-color:#e08179;stop-opacity:0;"
       offset="1"
       id="stop6321" /></linearGradient><linearGradient
     inkscape:collect="always"
     id="linearGradient5338"><stop
       style="stop-color:#e08179;stop-opacity:1;"
       offset="0"
       id="stop5340" /><stop
       style="stop-color:#e08179;stop-opacity:0;"
       offset="1"
       id="stop5342" /></linearGradient><linearGradient
     id="linearGradient4357"><stop
       style="stop-color:#bb6c66;stop-opacity:1;"
       offset="0"
       id="stop4359" /><stop
       id="stop4365"
       offset="0.39285713"
       style="stop-color:#ee9a92;stop-opacity:1;" /><stop
       style="stop-color:#fcb3ac;stop-opacity:1;"
       offset="1"
       id="stop4361" /></linearGradient><linearGradient
     id="linearGradient4349"><stop
       style="stop-color:#e57c76;stop-opacity:1;"
       offset="0"
       id="stop4351" /><stop
       style="stop-color:#fcb3ac;stop-opacity:0;"
       offset="1"
       id="stop4353" /></linearGradient><linearGradient
     id="linearGradient3370"><stop
       style="stop-color:#64615c;stop-opacity:1;"
       offset="0"
       id="stop3372" /><stop
       style="stop-color:#000000;stop-opacity:1;"
       offset="1"
       id="stop3374" /></linearGradient><linearGradient
     id="linearGradient3362"><stop
       style="stop-color:#000000;stop-opacity:1;"
       offset="0"
       id="stop3364" /><stop
       style="stop-color:#5c595b;stop-opacity:1;"
       offset="1"
       id="stop3366" /></linearGradient><linearGradient
     id="linearGradient3352"><stop
       style="stop-color:#4c4749;stop-opacity:1;"
       offset="0"
       id="stop3354" /><stop
       id="stop3360"
       offset="0.5"
       style="stop-color:#919191;stop-opacity:1;" /><stop
       style="stop-color:#615959;stop-opacity:1;"
       offset="1"
       id="stop3356" /></linearGradient><linearGradient
     id="linearGradient3336"><stop
       style="stop-color:#e0d8cd;stop-opacity:1;"
       offset="0"
       id="stop3338" /><stop
       id="stop3344"
       offset="0.42857143"
       style="stop-color:#ffffff;stop-opacity:1;" /><stop
       style="stop-color:#ffffff;stop-opacity:1;"
       offset="1"
       id="stop3340" /></linearGradient><linearGradient
     id="linearGradient3326"><stop
       style="stop-color:#e08179;stop-opacity:1"
       offset="0"
       id="stop3328" /><stop
       style="stop-color:#f5b8ad;stop-opacity:1"
       offset="1"
       id="stop3330" /></linearGradient><linearGradient
     id="linearGradient3318"><stop
       style="stop-color:#ffffff;stop-opacity:1;"
       offset="0"
       id="stop3320" /><stop
       style="stop-color:#22b3ff;stop-opacity:0;"
       offset="1"
       id="stop3322" /></linearGradient><linearGradient
     id="linearGradient3306"><stop
       style="stop-color:#ffffff;stop-opacity:1;"
       offset="0"
       id="stop3308" /><stop
       id="stop3314"
       offset="0.53571427"
       style="stop-color:#ffffff;stop-opacity:1;" /><stop
       style="stop-color:#d3d5d3;stop-opacity:1;"
       offset="1"
       id="stop3310" /></linearGradient><linearGradient
     id="linearGradient3298"><stop
       style="stop-color:#000000;stop-opacity:1;"
       offset="0"
       id="stop3300" /><stop
       style="stop-color:#00004f;stop-opacity:0;"
       offset="1"
       id="stop3302" /></linearGradient><linearGradient
     id="linearGradient3290"><stop
       style="stop-color:#000000;stop-opacity:1;"
       offset="0"
       id="stop3292" /><stop
       style="stop-color:#452f59;stop-opacity:0.4742268;"
       offset="1"
       id="stop3294" /></linearGradient><linearGradient
     id="linearGradient3280"><stop
       style="stop-color:#24b8f7;stop-opacity:0.2783505;"
       offset="0"
       id="stop3282" /><stop
       id="stop3288"
       offset="0.37714285"
       style="stop-color:#2fc3f7;stop-opacity:0.46391752;" /><stop
       style="stop-color:#00a6f7;stop-opacity:0.91764706;"
       offset="1"
       id="stop3284" /></linearGradient><linearGradient
     id="linearGradient3252"><stop
       style="stop-color:#7c7674;stop-opacity:1;"
       offset="0"
       id="stop3254" /><stop
       style="stop-color:#ccc3be;stop-opacity:1;"
       offset="1"
       id="stop3256" /></linearGradient><linearGradient
     id="linearGradient3244"><stop
       style="stop-color:#818181;stop-opacity:1;"
       offset="0"
       id="stop3246" /><stop
       style="stop-color:#dcd7d3;stop-opacity:1;"
       offset="1"
       id="stop3248" /></linearGradient><linearGradient
     id="linearGradient3234"><stop
       style="stop-color:#fcb3ac;stop-opacity:1;"
       offset="0"
       id="stop3236" /><stop
       id="stop3242"
       offset="0.6785714"
       style="stop-color:#f2bbae;stop-opacity:1;" /><stop
       style="stop-color:#e08179;stop-opacity:1;"
       offset="1"
       id="stop3238" /></linearGradient><linearGradient
     inkscape:collect="always"
     xlink:href="#linearGradient3234"
     id="linearGradient3240"
     x1="277.26175"
     y1="259.53561"
     x2="227.95656"
     y2="7.8869238"
     gradientUnits="userSpaceOnUse"
     gradientTransform="matrix(0.9302647,0,0,0.9099632,-23.916162,37.569638)" /><linearGradient
     inkscape:collect="always"
     xlink:href="#linearGradient3244"
     id="linearGradient3250"
     x1="62.111759"
     y1="131.47011"
     x2="129.98645"
     y2="143.54788"
     gradientUnits="userSpaceOnUse"
     gradientTransform="matrix(0.9302647,0,0,0.9099632,-23.916162,37.569638)" /><linearGradient
     inkscape:collect="always"
     xlink:href="#linearGradient3252"
     id="linearGradient3258"
     x1="95.408798"
     y1="136.59273"
     x2="147.02481"
     y2="139.79437"
     gradientUnits="userSpaceOnUse"
     gradientTransform="matrix(0.9302647,0,0,0.9099632,-23.916162,37.569638)" /><linearGradient
     inkscape:collect="always"
     xlink:href="#linearGradient3244"
     id="linearGradient3260"
     x1="21.130802"
     y1="126.3475"
     x2="154.95923"
     y2="154.5219"
     gradientUnits="userSpaceOnUse"
     gradientTransform="matrix(0.9302647,0,0,0.9099632,-23.916162,37.569638)" /><linearGradient
     inkscape:collect="always"
     xlink:href="#linearGradient3280"
     id="linearGradient3286"
     x1="265.73587"
     y1="260.81625"
     x2="129.73935"
     y2="218.11957"
     gradientUnits="userSpaceOnUse"
     gradientTransform="matrix(0.9302647,0,0,0.9099632,-24.511838,38.152313)" /><linearGradient
     inkscape:collect="always"
     xlink:href="#linearGradient3290"
     id="linearGradient3296"
     x1="337.45255"
     y1="221.75629"
     x2="281.74408"
     y2="243.48238"
     gradientUnits="userSpaceOnUse"
     gradientTransform="matrix(0.9302647,0,0,0.9099632,-23.916162,37.569638)" /><linearGradient
     inkscape:collect="always"
     xlink:href="#linearGradient3298"
     id="linearGradient3304"
     x1="258.69226"
     y1="248.0097"
     x2="194.65953"
     y2="237.01672"
     gradientUnits="userSpaceOnUse"
     gradientTransform="matrix(0.9302647,0,0,0.9099632,-23.916162,37.569638)" /><linearGradient
     inkscape:collect="always"
     xlink:href="#linearGradient3306"
     id="linearGradient3312"
     x1="187.61592"
     y1="278.53738"
     x2="219.63231"
     y2="121.22488"
     gradientUnits="userSpaceOnUse"
     gradientTransform="matrix(0.9302647,0,0,0.9099632,-23.916162,37.569638)" /><linearGradient
     inkscape:collect="always"
     xlink:href="#linearGradient3318"
     id="linearGradient3324"
     x1="142.53745"
     y1="205.74809"
     x2="251.39311"
     y2="201.27654"
     gradientUnits="userSpaceOnUse"
     gradientTransform="matrix(0.9302647,0,0,0.9099632,-23.916162,37.569638)" /><linearGradient
     inkscape:collect="always"
     xlink:href="#linearGradient3326"
     id="linearGradient3332"
     x1="138.31073"
     y1="280.66638"
     x2="265.73587"
     y2="289.63098"
     gradientUnits="userSpaceOnUse"
     gradientTransform="matrix(0.9302647,0,0,0.9099632,-23.916162,37.569638)" /><linearGradient
     inkscape:collect="always"
     xlink:href="#linearGradient3336"
     id="linearGradient3342"
     x1="304.79587"
     y1="88.568176"
     x2="329.63275"
     y2="286.42935"
     gradientUnits="userSpaceOnUse"
     gradientTransform="matrix(0.9302647,0,0,0.9099632,-23.916162,37.569638)" /><linearGradient
     inkscape:collect="always"
     xlink:href="#linearGradient3352"
     id="linearGradient3358"
     x1="165.20447"
     y1="408.09155"
     x2="179.29167"
     y2="296.67459"
     gradientUnits="userSpaceOnUse"
     gradientTransform="matrix(0.9302647,0,0,0.9099632,-23.916162,37.569638)" /><linearGradient
     inkscape:collect="always"
     xlink:href="#linearGradient3362"
     id="linearGradient3368"
     x1="352.8204"
     y1="443.30957"
     x2="293.91028"
     y2="347.90079"
     gradientUnits="userSpaceOnUse"
     gradientTransform="matrix(0.9302647,0,0,0.9099632,-23.916162,37.569638)" /><linearGradient
     inkscape:collect="always"
     xlink:href="#linearGradient3370"
     id="linearGradient3376"
     x1="349.00177"
     y1="404.72778"
     x2="361.06287"
     y2="327.32709"
     gradientUnits="userSpaceOnUse" /><linearGradient
     inkscape:collect="always"
     xlink:href="#linearGradient4349"
     id="linearGradient4355"
     x1="92.317009"
     y1="283.02408"
     x2="81.242928"
     y2="271.84213"
     gradientUnits="userSpaceOnUse"
     gradientTransform="matrix(0.9302647,0,0,0.9099632,-23.916162,37.569638)" /><linearGradient
     inkscape:collect="always"
     xlink:href="#linearGradient4357"
     id="linearGradient4363"
     x1="82.922401"
     y1="361.98798"
     x2="107.25484"
     y2="280.02606"
     gradientUnits="userSpaceOnUse"
     gradientTransform="matrix(0.9302647,0,0,0.9099632,-23.916162,37.569638)" /><linearGradient
     inkscape:collect="always"
     xlink:href="#linearGradient5338"
     id="linearGradient5344"
     x1="109.01862"
     y1="306.59967"
     x2="91.246651"
     y2="295.71408"
     gradientUnits="userSpaceOnUse"
     gradientTransform="matrix(0.9302647,0,0,0.9099632,-23.916162,37.569638)" /><linearGradient
     inkscape:collect="always"
     xlink:href="#linearGradient6317"
     id="linearGradient6323"
     x1="46.423737"
     y1="305.319"
     x2="64.062302"
     y2="310.30899"
     gradientUnits="userSpaceOnUse"
     gradientTransform="matrix(0.9302647,0,0,0.9099632,-23.916162,37.569638)" /><linearGradient
     inkscape:collect="always"
     xlink:href="#linearGradient7296"
     id="linearGradient7302"
     x1="52.666927"
     y1="295.39392"
     x2="60.831104"
     y2="298.43549"
     gradientUnits="userSpaceOnUse"
     gradientTransform="matrix(0.9302647,0,0,0.9099632,-24.511836,37.278301)" /><linearGradient
     inkscape:collect="always"
     xlink:href="#linearGradient7310"
     id="linearGradient7316"
     x1="107.30882"
     y1="314.90836"
     x2="127.23112"
     y2="327.81259"
     gradientUnits="userSpaceOnUse"
     gradientTransform="matrix(0.9302647,0,0,0.9099632,-23.916162,37.569638)" /><linearGradient
     inkscape:collect="always"
     xlink:href="#linearGradient8293"
     id="linearGradient8299"
     x1="146.70067"
     y1="401.61572"
     x2="152.58681"
     y2="373.54337"
     gradientUnits="userSpaceOnUse"
     gradientTransform="matrix(0.9302647,0,0,0.9099632,-23.916162,37.569638)" /><linearGradient
     inkscape:collect="always"
     xlink:href="#linearGradient9274"
     id="linearGradient9272"
     x1="136.38974"
     y1="230.08054"
     x2="126.14449"
     y2="250.57101"
     gradientUnits="userSpaceOnUse"
     gradientTransform="matrix(0.9302647,0,0,0.9099632,-23.916162,37.569638)" /><linearGradient
     inkscape:collect="always"
     xlink:href="#linearGradient10265"
     id="linearGradient10271"
     x1="159.17177"
     y1="353.42514"
     x2="199.74263"
     y2="351.98911"
     gradientUnits="userSpaceOnUse"
     gradientTransform="matrix(0.9302647,0,0,0.9099632,-23.916162,37.569638)" /><linearGradient
     inkscape:collect="always"
     xlink:href="#linearGradient11242"
     id="linearGradient11248"
     x1="212.80653"
     y1="457.30765"
     x2="286.64423"
     y2="469.95419"
     gradientUnits="userSpaceOnUse"
     gradientTransform="matrix(0.9302647,0,0,0.9099632,-23.916162,37.569638)" /><linearGradient
     inkscape:collect="always"
     xlink:href="#linearGradient11250"
     id="linearGradient11256"
     x1="248.77498"
     y1="536.09137"
     x2="284.49789"
     y2="548.76917"
     gradientUnits="userSpaceOnUse"
     gradientTransform="matrix(0.9302647,0,0,0.9099632,-23.916162,37.569638)" /><linearGradient
     inkscape:collect="always"
     xlink:href="#linearGradient11258"
     id="linearGradient11264"
     x1="246.83673"
     y1="502.84799"
     x2="263.71375"
     y2="515.52582"
     gradientUnits="userSpaceOnUse"
     gradientTransform="matrix(0.9302647,0,0,0.9099632,-23.916162,37.569638)" /><linearGradient
     inkscape:collect="always"
     xlink:href="#linearGradient11274"
     id="linearGradient11280"
     x1="163.90631"
     y1="451.87427"
     x2="281.62909"
     y2="488.6066"
     gradientUnits="userSpaceOnUse"
     gradientTransform="matrix(0.9302647,0,0,0.9099632,-23.916162,37.569638)" /><linearGradient
     inkscape:collect="always"
     xlink:href="#linearGradient11250"
     id="linearGradient11292"
     x1="231.82329"
     y1="575.0304"
     x2="192.88422"
     y2="555.10809"
     gradientUnits="userSpaceOnUse"
     gradientTransform="matrix(0.9177669,0,0,0.90997,-20.04104,37.566371)" /><linearGradient
     inkscape:collect="always"
     xlink:href="#linearGradient11296"
     id="linearGradient11302"
     x1="219.14545"
     y1="413.84076"
     x2="207.37317"
     y2="458.21323"
     gradientUnits="userSpaceOnUse"
     gradientTransform="matrix(0.9302647,0,0,0.9099632,-23.916162,37.569638)" /><linearGradient
     inkscape:collect="always"
     xlink:href="#linearGradient12275"
     id="linearGradient12281"
     x1="277.4021"
     y1="92.410149"
     x2="324.00568"
     y2="122.50553"
     gradientUnits="userSpaceOnUse"
     gradientTransform="matrix(0.9566882,0,0,0.9251082,-33.77614,37.128777)" /><linearGradient
     inkscape:collect="always"
     xlink:href="#linearGradient13256"
     id="linearGradient13262"
     x1="319.66257"
     y1="57.955814"
     x2="343.11459"
     y2="72.444771"
     gradientUnits="userSpaceOnUse"
     gradientTransform="matrix(0.9767127,0,0,0.9278113,-39.846064,34.40218)" /><linearGradient
     inkscape:collect="always"
     xlink:href="#linearGradient14235"
     id="linearGradient14241"
     x1="123.15612"
     y1="33.505703"
     x2="150.32291"
     y2="57.050255"
     gradientUnits="userSpaceOnUse"
     gradientTransform="matrix(0.9302647,0,0,0.9099632,-23.916162,37.569638)" /><linearGradient
     inkscape:collect="always"
     xlink:href="#linearGradient2346"
     id="linearGradient2352"
     x1="353.30246"
     y1="268.28659"
     x2="445.87854"
     y2="235.67169"
     gradientUnits="userSpaceOnUse"
     gradientTransform="translate(-94.195497,13.28398)" /><linearGradient
     inkscape:collect="always"
     xlink:href="#linearGradient2346"
     id="linearGradient3325"
     gradientUnits="userSpaceOnUse"
     gradientTransform="matrix(-1,0,0,1,558.57988,18.618292)"
     x1="351.80811"
     y1="275.27725"
     x2="445.87854"
     y2="235.67169" /><linearGradient
     inkscape:collect="always"
     xlink:href="#linearGradient3329"
     id="linearGradient3335"
     x1="150.00807"
     y1="119.73238"
     x2="131.59164"
     y2="141.16789"
     gradientUnits="userSpaceOnUse" /><linearGradient
     inkscape:collect="always"
     xlink:href="#linearGradient4308"
     id="linearGradient4314"
     x1="127.69601"
     y1="295.96326"
     x2="164.16054"
     y2="292.54755"
     gradientUnits="userSpaceOnUse"
     gradientTransform="matrix(0.999635,0,0,1.0762011,5.9911316e-2,-19.410755)" /><linearGradient
     inkscape:collect="always"
     xlink:href="#linearGradient5287"
     id="linearGradient5293"
     x1="154.5367"
     y1="616.97589"
     x2="173.25504"
     y2="626.63696"
     gradientUnits="userSpaceOnUse" /></defs><sodipodi:namedview
   inkscape:window-height="712"
   inkscape:window-width="1024"
   inkscape:pageshadow="2"
   inkscape:pageopacity="0.0"
   guidetolerance="10.0"
   gridtolerance="10.0"
   objecttolerance="10.0"
   borderopacity="1.0"
   bordercolor="#666666"
   pagecolor="#ffffff"
   id="base"
   inkscape:zoom="0.55214473"
   inkscape:cx="119.93463"
   inkscape:cy="171.41863"
   inkscape:window-x="-4"
   inkscape:window-y="-4"
   inkscape:current-layer="svg2178"
   width="256px"
   height="256px" />
<g
   id="Siatka"
   display="none"
   style="display:none">
</g>
<g
   id="Warstwa_1">
</g>
<g
   id="Pulpit">
</g>
<g
   id="Prowadnice">
</g>
<g
   id="Page_1">
	<g
   id="Warstwa_1_1_">
		
			<path
   clip-rule="evenodd"
   stroke-miterlimit="2.4142"
   d="M 120.03765,47.960508 C 55.493092,89.47576 65.21994,123.20627 72.29181,182.0172 C 78.17946,230.97777 96.93545,283.70741 105.89111,330.77707 C 107.56187,339.56277 119.7074,380.8023 121.11396,388.82636 C 132.57668,454.20721 127.87327,444.54249 134.18418,495.96906 C 135.81866,509.2882 125.34946,651.65376 142.14167,657.70138 C 165.60201,666.1513 185.44735,623.11186 196.07655,603.21369 C 210.46496,576.27787 211.94408,570.09194 230.5596,502.02214 C 242.34699,458.92082 247.41042,414.69388 248.35743,385.5878 C 248.62441,377.35081 248.67837,364.84428 252.8627,351.58702 C 254.52694,346.31469 255.99583,342.65118 258.13172,337.36066 C 258.28428,336.98302 255.32883,334.87646 256.33352,334.49882 C 259.43409,333.33589 268.54417,328.68689 269.07535,326.57304 C 272.70804,312.1292 274.40577,275.45768 278.57987,255.59955 C 294.95439,177.69396 312.17452,83.618326 269.46327,62.663693 C 221.9193,39.337696 155.5812,32.634907 120.03765,47.960508 L 120.03765,47.960508 z "
   id="path2186"
   style="fill:url(#linearGradient3332);fill-opacity:1;fill-rule:evenodd;stroke:#452f25;stroke-width:0.19873253;stroke-miterlimit:2.41420007" />
		
			<path
   clip-rule="evenodd"
   stroke-miterlimit="2.4142"
   d="M 233.98484,197.03978 C 233.96902,217.48847 236.28352,223.50424 235.97653,236.50306 C 235.64536,250.56381 244.14612,300.90116 247.83648,301.34977 C 256.15956,302.36165 274.17506,290.05713 283.51399,260.40689 C 293.6855,228.1132 299.33128,172.43164 292.01103,138.6802 C 291.31147,135.4562 282.24418,114.7609 274.10901,115.21316 C 261.00252,115.94204 240.75437,183.64239 233.98484,197.03978 L 233.98484,197.03978 z "
   id="path2188"
   style="fill:url(#linearGradient3342);fill-opacity:1;fill-rule:evenodd;stroke:#452f25;stroke-width:0.19873253;stroke-miterlimit:2.41420007" />
		
			<path
   style="fill:url(#linearGradient9272);fill-opacity:1;fill-rule:evenodd;stroke:#000000;stroke-width:0.92005795px;stroke-linecap:butt;stroke-linejoin:miter;stroke-opacity:0"
   d="M 206.01399,308.11527 C 201.98037,309.55691 189.60722,297.7602 185.76108,295.8791 C 152.87118,277.20181 127.7545,265.50409 97.00565,253.92655 C 91.51834,252.80101 86.34857,256.88859 86.28352,249.26515 C 86.28352,246.3521 88.9501,247.51713 91.64459,247.51713 C 108.34172,228.14825 122.65755,259.59706 145.85092,267.91073 C 163.89673,273.84936 196.74206,293.84177 212.56641,303.45387 C 215.07646,304.68152 206.01399,304.36722 206.01399,308.11527 z "
   id="path9270"
   sodipodi:nodetypes="cccccccc" /><path
   style="fill:url(#linearGradient10271);fill-opacity:1;fill-rule:evenodd;stroke:#000000;stroke-width:0.92005795px;stroke-linecap:butt;stroke-linejoin:miter;stroke-opacity:0"
   d="M 104.74942,237.61166 C 108.3765,242.62931 122.02396,275.13947 122.02396,283.06027 C 122.02396,291.76308 131.6757,314.53362 133.34177,322.68213 C 135.05206,331.047 141.12584,347.23331 145.25525,355.31189 C 149.06868,362.77231 131.55474,348.79096 131.55474,357.05991 C 131.55474,362.11644 133.62013,369.76448 134.53311,375.12282 C 135.34236,379.87235 134.53311,385.41829 134.53311,390.27235 C 134.53311,395.3222 134.53311,400.37204 134.53311,405.42189 C 134.53311,410.13666 135.66318,413.74243 136.32013,418.24073 C 136.88403,422.10188 137.51149,427.83256 137.51149,432.80758 C 137.51149,437.85743 137.51149,442.90727 137.51149,447.95712 C 137.51149,448.92824 138.10716,450.48204 138.10716,451.45316 C 139.49706,520.40296 187.04417,520.49926 142.27687,658.30257 C 128.74401,645.72792 132.79726,588.44791 132.66116,564.45523 L 134.98308,522.54559 L 129.76772,404.25654 L 96.25877,290.0927 L 86.8792,250.43051 L 104.74942,237.61166 z "
   id="path10263"
   sodipodi:nodetypes="csssssssssscccccccc" /><path
   clip-rule="evenodd"
   stroke-miterlimit="2.4142"
   d="M 209.34027,198.88882 C 199.46923,189.20955 184.60825,175.09966 179.7225,170.77915 C 161.4428,154.61274 130.38405,130.6343 128.5291,129.69977 C 89.98824,110.29208 129.99334,246.08953 143.46822,257.68428 C 150.85732,264.0431 164.48755,275.11917 218.83734,306.07157 C 219.8197,306.63029 221.94628,278.08747 219.44945,250.06152 C 217.44473,227.56267 211.04544,205.39597 209.34027,198.88882 L 209.34027,198.88882 z "
   id="path2190"
   style="fill:url(#linearGradient3312);fill-opacity:1;fill-rule:evenodd;stroke:#452f25;stroke-width:0.19873253;stroke-miterlimit:2.41420007" />
		
			<path
   clip-rule="evenodd"
   stroke-miterlimit="2.4142"
   d="M 113.8486,115.42063 C 110.42987,112.44778 93.65627,94.41049 84.02059,83.951373 C 79.64183,79.198635 90.11382,75.10653 85.82251,73.008155 C 77.57851,68.975198 54.835395,100.45629 51.959947,114.12757 C 47.836084,133.73 48.31517,143.49481 50.190583,163.42301 C 52.704159,190.1368 64.1706,191.45715 70.08336,210.56183 C 72.69462,218.9981 78.93855,253.00252 92.29715,249.59834 C 101.85748,247.16146 111.30525,233.8669 110.31266,195.85501 C 109.71357,172.96488 104.27059,154.44895 113.8486,115.42063 L 113.8486,115.42063 z "
   id="path2192"
   style="fill:url(#linearGradient3260);fill-opacity:1;fill-rule:evenodd;stroke:#452f25;stroke-width:0.19873253;stroke-miterlimit:2.41420007" />
		
			<path
   clip-rule="evenodd"
   stroke-miterlimit="2.4142"
   d="M 96.23403,120.04142 C 99.30763,169.36234 111.53131,228.52997 89.0896,239.09464 C 80.89862,242.95015 73.36069,220.41127 67.71026,202.83715 C 65.82647,196.98063 54.180489,184.08099 53.284644,179.84875 C 49.875224,163.75241 50.665018,142.91153 50.209189,128.94905 C 49.464047,106.09442 66.93442,82.631926 72.8109,90.118194 C 88.1091,109.61051 95.58006,109.54136 96.23403,120.04142 L 96.23403,120.04142 z "
   id="path2194"
   style="fill:url(#linearGradient3250);fill-opacity:1;fill-rule:evenodd;stroke:#452f25;stroke-width:0.19873253;stroke-miterlimit:2.41420007" />
		
			<path
   clip-rule="evenodd"
   stroke-miterlimit="2.4142"
   d="M 79.58044,122.69669 C 65.67112,110.65879 48.337496,172.13591 70.28616,180.04349 C 73.59511,181.23554 82.61496,193.30256 83.83175,196.71856 C 87.4821,206.97476 93.193,228.74836 96.98476,238.07639 C 97.80153,240.08559 138.52759,265.15508 140.84674,269.34182 C 141.18535,269.95331 122.10097,228.93399 114.7156,197.83327 C 108.40097,171.2405 109.51263,152.79191 110.98803,137.75204 C 112.09877,126.42663 100.9114,141.82685 93.3251,136.69921 C 85.73879,131.57156 85.45041,127.77793 79.58044,122.69669 L 79.58044,122.69669 z "
   id="path2196"
   style="fill:url(#linearGradient3258);fill-opacity:1;fill-rule:evenodd;stroke:#452f25;stroke-width:0.19873253;stroke-miterlimit:2.41420007" />
		
			<path
   style="fill:url(#linearGradient13262);fill-opacity:1;fill-rule:evenodd;stroke:#000000;stroke-width:0.95194805px;stroke-linecap:butt;stroke-linejoin:miter;stroke-opacity:0"
   d="M 227.02624,202.46566 C 243.22208,171.58845 244.76441,160.08651 269.01429,116.34496 C 274.77217,110.45408 286.67388,141.39501 295.08805,153.70458 L 294.78998,96.146486 L 279.44821,71.370469 L 245.3586,131.17397 L 227.02624,202.46566 z "
   id="path13252"
   sodipodi:nodetypes="ccccccc" /><path
   clip-rule="evenodd"
   stroke-miterlimit="2.4142"
   d="M 236.51144,166.5551 C 242.29117,144.72235 246.68667,137.41444 251.77894,126.62046 C 263.97471,100.77022 275.77605,77.195806 279.23477,77.609839 C 284.77078,78.273202 297.12562,111.57785 297.12562,116.98576 C 297.12562,121.71848 290.19422,58.102958 284.74194,54.82709 C 278.37893,51.005245 258.1587,88.555787 244.7787,122.3591 C 236.20166,144.02714 232.36618,164.20922 230.91962,170.85559 C 229.1856,178.81959 225.66269,193.74207 227.15111,199.80971 C 227.46554,201.0882 229.71864,192.21242 236.51144,166.5551 L 236.51144,166.5551 z "
   id="path2198"
   style="fill:#452f25;fill-rule:evenodd;stroke:#452f25;stroke-width:0.19873253;stroke-miterlimit:2.41420007" />
		
			<path
   sodipodi:nodetypes="cccc"
   id="path3323"
   d="M 198.52911,215.35288 C 221.00859,215.22999 226.15024,285.81584 206.53782,293.17897 C 195.31744,295.77575 181.55354,274.21567 180.21259,271.5263 C 220.3375,320.6678 224.26767,228.54325 198.52911,215.35288 z "
   style="fill:url(#linearGradient3325);fill-opacity:1;fill-rule:evenodd;stroke:#000000;stroke-width:1px;stroke-linecap:butt;stroke-linejoin:miter;stroke-opacity:0" /><path
   clip-rule="evenodd"
   stroke-miterlimit="2.4142"
   d="M 199.80877,215.99613 C 174.54465,204.83816 153.15228,265.23424 201.59209,291.00531 C 219.54806,300.55719 232.59688,226.78102 199.80877,215.99613 L 199.80877,215.99613 z "
   id="path2200"
   style="fill:url(#linearGradient3304);fill-opacity:1;fill-rule:evenodd;stroke:#452f25;stroke-width:0.19873253;stroke-miterlimit:2.41420007" />
		
			<path
   clip-rule="evenodd"
   stroke-miterlimit="2.4142"
   d="M 142.03446,266.25355 C 156.97544,275.99653 229.9995,323.3904 231.77445,321.85893 C 232.48889,321.24198 230.0783,304.07011 230.53173,292.91263 C 230.60617,291.08094 227.69959,248.3862 222.58346,228.71553 C 216.27453,204.45877 214.95115,198.45967 213.51668,197.06014 C 203.83634,187.61559 164.82214,140.32662 156.13812,133.95688 C 132.90569,116.91691 127.61621,105.81536 116.17488,110.65545 C 112.11242,112.37346 113.25478,135.47561 113.25478,150.38535 C 113.25292,186.71109 125.6366,224.32897 143.31535,264.5457 L 142.03446,266.25355 z "
   id="path2202"
   style="fill:url(#linearGradient3286);fill-opacity:1;fill-rule:evenodd;stroke:#452f25;stroke-width:0.19873253;stroke-miterlimit:2.41420007"
   sodipodi:nodetypes="cssssssscc" />
		
			<path
   clip-rule="evenodd"
   stroke-miterlimit="2.4142"
   d="M 264.02401,210.67558 C 283.94842,199.30286 300.81784,260.86005 262.61745,287.12614 C 248.4579,296.86365 238.16638,221.66702 264.02401,210.67558 L 264.02401,210.67558 z "
   id="path2204"
   style="fill:url(#linearGradient3296);fill-opacity:1;fill-rule:evenodd;stroke:#452f25;stroke-width:0.19873253;stroke-miterlimit:2.41420007" />
		
			<path
   clip-rule="evenodd"
   stroke-miterlimit="2.4142"
   d="M 258.36242,339.19787 C 259.22757,344.81962 252.99108,370.04836 247.78438,371.73998 C 234.78394,375.96312 215.27908,376.72749 206.20806,370.55884 C 190.12193,359.61927 167.14067,332.05739 171.24872,326.25547 C 173.11483,323.62021 198.25895,337.69188 201.78652,338.63824 C 213.35622,341.74395 225.21895,345.33557 236.31794,343.88509 C 251.16125,341.94414 253.38365,335.53709 258.35591,333.77722 L 258.36242,339.19787 L 258.36242,339.19787 z "
   id="path2206"
   style="fill:#ffffff;fill-rule:evenodd;stroke:#452f25;stroke-width:0.19873253;stroke-miterlimit:2.41420007" />
		
			<path
   clip-rule="evenodd"
   stroke-miterlimit="2.4142"
   d="M 229.67585,420.7233 C 226.13899,412.0741 209.34027,386.99278 206.68715,384.39756 C 204.81174,382.56308 149.89542,368.29759 110.31173,344.61306 C 108.62516,343.60482 111.05594,361.32545 114.73235,365.37114 C 120.51766,371.73452 229.67585,425.91282 229.67585,420.7233 L 229.67585,420.7233 z "
   id="path2208"
   style="fill:#ffffff;fill-rule:evenodd;stroke:#452f25;stroke-width:0.19873253;stroke-miterlimit:2.41420007" />
		
			<path
   clip-rule="evenodd"
   stroke-miterlimit="2.4142"
   d="M 204.46196,186.76174 C 188.95631,167.11109 133.61951,111.7098 124.3578,109.68331 C 115.57052,107.75965 112.81321,115.91656 104.24082,138.33987 C 102.70496,142.35827 108.54609,84.940503 113.85139,79.750983 C 123.5773,70.237317 159.06504,125.44478 177.50847,146.12461 C 200.89997,172.35339 228.95769,217.80332 204.46196,186.76174 L 204.46196,186.76174 z "
   id="path2210"
   style="fill:#452f25;fill-rule:evenodd;stroke:#452f25;stroke-width:0.19873253;stroke-miterlimit:2.41420007" />
		
			<path
   clip-rule="evenodd"
   stroke-miterlimit="2.4142"
   d="M 233.07876,408.45153 C 237.08076,401.08174 244.15077,384.1082 246.26991,382.99895 C 265.29104,373.04486 274.05785,358.39719 266.839,379.32452 C 259.53828,400.48844 248.01416,412.82391 233.07876,408.45153 L 233.07876,408.45153 z "
   id="path2212"
   style="fill:#ffffff;fill-rule:evenodd;stroke:#452f25;stroke-width:0.19873253;stroke-miterlimit:2.41420007" />
		
			<path
   clip-rule="evenodd"
   stroke-miterlimit="2.4142"
   d="M 139.95089,268.29991 C 141.85701,267.98961 146.33623,267.71753 145.47294,265.70196 C 140.32207,253.68135 131.40269,233.84688 127.57651,222.25941 C 119.56414,197.99706 115.64308,173.84027 114.75933,157.4127 C 114.36489,150.07476 118.0813,106.62129 114.98073,113.10113 C 106.89208,130.00097 107.0865,163.47124 113.4337,193.72751 C 119.56879,222.96827 128.23979,241.49694 139.95089,268.29991 L 139.95089,268.29991 z "
   id="path2214"
   style="fill:url(#linearGradient3324);fill-opacity:1;fill-rule:evenodd;stroke:#452f25;stroke-width:0.19873253;stroke-miterlimit:2.41420007" />
		
			<path
   clip-rule="evenodd"
   stroke-miterlimit="2.4142"
   d="M 112.08016,359.31716 C 138.13502,378.58836 169.63192,380.96154 191.2029,394.90127 C 219.83086,413.40264 218.2736,437.2728 223.41238,435.21719 C 225.44408,434.40459 234.18671,394.97134 236.19515,394.34528 C 240.5739,392.97943 249.47281,371.76546 252.44873,374.74741 C 254.65811,376.96135 251.07752,404.12011 244.708,438.0217 C 233.98391,495.08913 238.10033,487.45909 231.44522,508.07613 C 224.15101,530.67051 221.96582,549.13003 217.34705,560.56917 C 215.24745,565.76779 214.74882,573.33505 209.3412,576.40162 C 177.77545,594.30515 149.07772,583.39014 135.86982,559.03316 C 127.9449,544.41915 132.77483,539.49443 131.53386,525.37453 L 124.46013,444.94015 C 122.61076,423.90635 116.53148,391.3424 113.2802,368.46593 C 112.81507,365.19825 112.40762,362.12804 112.08016,359.31716 L 112.08016,359.31716 z "
   id="path2216"
   style="fill:url(#linearGradient11280);fill-opacity:1;fill-rule:evenodd;stroke:#452f25;stroke-width:0.19873253;stroke-miterlimit:2.41420007" />
		
			<path
   clip-rule="evenodd"
   stroke-miterlimit="2.4142"
   d="M 176.3261,413.75571 C 167.59836,395.08508 170.97057,369.20027 191.98618,385.54321 C 214.76092,403.25382 211.82407,419.6095 240.25389,427.16584 C 248.14161,429.2633 249.94818,418.16266 249.22816,407.6262 C 248.84303,401.97896 252.99015,394.84576 253.23015,391.28872 C 253.39481,388.86366 263.85006,384.78339 264.67334,390.10394 C 264.94684,391.87746 262.06023,402.52312 260.33365,406.658 C 259.22013,409.32328 261.74208,409.04938 260.94484,412.10412 C 254.45624,436.98161 251.70638,469.33353 217.09402,459.72068 C 198.61431,454.59122 189.14887,413.30619 176.3261,413.75571 L 176.3261,413.75571 z "
   id="path2218"
   style="fill:#ece9e7;fill-rule:evenodd;stroke:#452f25;stroke-width:0.19873253;stroke-miterlimit:2.41420007" />
		
			<path
   clip-rule="evenodd"
   stroke-miterlimit="2.4142"
   d="M 169.87565,504.40806 C 156.78403,504.40806 139.81266,505.65471 130.81514,496.17563 C 124.73773,489.77495 124.41285,507.70381 126.88027,516.51168 C 129.89936,527.28883 139.4932,524.06509 148.36886,529.56309 C 153.51787,532.75251 162.39539,536.8801 168.94073,536.8801 C 169.40772,536.8801 177.35591,503.95126 169.87565,504.40806 L 169.87565,504.40806 z "
   id="path2220"
   style="fill:#ece9e7;fill-rule:evenodd;stroke:#452f25;stroke-width:0.19873253;stroke-miterlimit:2.41420007"
   sodipodi:nodetypes="csssscc" />
		
			<path
   clip-rule="evenodd"
   stroke-miterlimit="2.4142"
   d="M 171.22639,509.76684 C 163.86149,509.76684 151.0657,509.78231 142.13329,507.58748 C 135.18608,505.8822 131.88109,502.95449 129.27263,499.93887 C 128.33958,498.86056 125.04591,510.56427 129.87645,516.02678 C 132.22798,518.68595 133.00089,516.85636 145.97901,522.95766 C 150.37172,525.02328 161.28,529.99805 167.74906,529.8015 C 170.68963,529.71141 170.11752,527.74771 172.16224,526.41188 C 172.47202,526.20896 178.70665,509.49294 171.22639,509.76684 L 171.22639,509.76684 z "
   id="path2222"
   style="fill:#ccc3be;fill-rule:evenodd;stroke:#452f25;stroke-width:0.19873253;stroke-miterlimit:2.41420007"
   sodipodi:nodetypes="csssssscc" />
		
			<path
   clip-rule="evenodd"
   stroke-miterlimit="2.4142"
   d="M 211.58955,390.14244 C 213.69858,397.65152 223.13964,401.54164 230.07154,402.44615 C 242.23563,404.03404 243.63614,391.90596 244.68882,390.71754 C 247.03004,388.07499 260.48817,394.83697 261.19944,395.73239 C 269.45659,406.11788 260.53039,475.88801 251.81528,484.04134 C 236.99701,497.90382 234.25013,510.40317 226.46289,531.09952 C 220.53595,546.8502 223.26116,555.58145 217.38562,559.32326 C 214.90489,560.90296 199.33828,562.63363 196.26743,563.25787 C 189.18228,564.69926 152.80658,559.53518 150.58375,548.14872 C 150.00831,545.20224 152.57898,528.64988 155.57273,515.87391 C 157.42938,507.95444 158.77849,479.39503 153.22417,474.82698 C 149.12175,471.4519 146.97418,455.97422 145.09,440.74405 C 144.1034,432.76543 141.28219,421.84215 140.93344,416.71629 C 140.00833,403.13408 147.18802,400.89919 149.84954,399.68165 C 158.66377,395.64776 208.40582,378.81149 211.58955,390.14244 L 211.58955,390.14244 z "
   id="path2224"
   style="fill:url(#linearGradient11292);fill-opacity:1;fill-rule:evenodd;stroke:#452f25;stroke-width:0.19739379;stroke-miterlimit:2.41420007"
   sodipodi:nodetypes="cssssssssssssscc" />
		
			<path
   clip-rule="evenodd"
   stroke-miterlimit="2.4142"
   d="M 205.10198,391.28417 C 208.60071,397.38729 221.05509,406.90914 227.37624,407.72083 C 231.36335,408.23314 236.35794,408.57802 239.51898,406.98194 C 245.15174,404.13467 247.70345,397.9451 247.89136,395.67292 C 248.01602,394.17876 261.69556,401.6077 262.34396,402.41211 C 269.87445,411.75834 260.88809,477.68699 252.93898,485.02403 C 239.4241,497.49962 235.25093,505.47181 228.14836,524.09603 C 222.74352,538.27052 220.1425,551.16561 216.13213,556.03028 C 214.86604,557.5672 208.31139,561.50462 198.61804,560.74116 C 196.78448,560.59738 190.93126,560.80849 184.89477,560.21793 C 173.77532,559.12961 163.24286,555.88559 156.84357,552.95096 C 151.94573,550.70426 154.04068,543.14793 154.97839,540.01765 C 155.72725,537.51617 158.90969,515.819 160.68277,503.69829 C 161.74234,496.45408 162.94518,482.53892 159.17667,476.28201 C 156.70031,472.16898 153.47508,459.31484 151.75595,445.60715 C 150.85546,438.42663 148.28234,428.59539 147.96419,423.98187 C 147.12044,411.75925 151.26477,404.09554 153.69183,403.00085 C 161.73118,399.37283 203.9131,389.20945 205.10198,391.28417 L 205.10198,391.28417 z "
   id="path2226"
   style="fill:url(#linearGradient11248);fill-opacity:1;fill-rule:evenodd;stroke:#452f25;stroke-width:0.19873253;stroke-miterlimit:2.41420007" />
		<path
   clip-rule="evenodd"
   stroke-miterlimit="2.4142"
   d="M 230.21168,409.66633 C 231.69918,412.65192 233.32528,417.53388 233.64343,423.27938 C 234.37183,436.39104 234.60998,454.75228 231.59034,467.81935 C 231.46568,468.36078 216.03538,466.93214 202.52329,468.55369 C 198.74083,469.00867 193.29599,469.3308 189.6354,470.44096 C 176.16796,474.52669 168.07201,479.62886 165.08121,480.38321"
   id="path2228"
   style="fill:none;fill-rule:evenodd;stroke:#452f25;stroke-width:0.19873253;stroke-miterlimit:2.41420007"
   sodipodi:nodetypes="cssssc" />
		<path
   clip-rule="evenodd"
   stroke-miterlimit="2.4142"
   d="M 239.52084,410.39976 C 237.35891,428.02575 237.78962,434.76858 237.53194,444.34594 C 237.24914,454.84328 236.49283,461.05742 236.50492,468.39627 C 236.50492,468.40537 241.453,470.63296 248.22533,474.85064 C 253.96785,478.4277 253.15915,479.56908 255.69319,481.69749"
   id="path2230"
   style="fill:none;fill-rule:evenodd;stroke:#452f25;stroke-width:0.19873253;stroke-miterlimit:2.41420007"
   sodipodi:nodetypes="csssc" />
		<path
   clip-rule="evenodd"
   stroke-miterlimit="2.4142"
   d="M 218.31081,553.22213 C 217.53776,553.59431 210.61659,557.13588 201.8628,557.41433 C 196.26354,557.59177 183.4696,556.58535 175.94283,555.13032 C 160.77859,552.19842 162.70703,549.70239 161.45396,548.01805 C 160.09484,546.18902 159.77948,537.25956 159.94228,534.33038 C 160.43253,525.53832 163.38147,516.44779 164.82059,504.7584 C 165.67457,497.81629 165.96947,489.72672 164.89315,483.70367 C 164.56663,481.87828 164.78989,478.8654 163.90707,477.33848 C 161.83165,473.74594 159.17202,469.43909 158.64363,464.64904 C 156.71984,447.21233 152.25271,430.03404 152.52249,415.66117 C 152.7625,402.90713 179.70203,402.76335 202.80051,397.81861 C 205.57921,400.44568 218.66803,416.77042 237.68171,413.7457 C 241.8372,413.08325 248.70628,406.83544 250.01702,400.11991 C 250.31098,398.6121 261.8658,405.73074 264.15983,406.001"
   id="path2232"
   style="fill:none;fill-rule:evenodd;stroke:#452f25;stroke-width:0.19873253;stroke-miterlimit:2.41420007" />
		
			<path
   clip-rule="evenodd"
   stroke-miterlimit="2.4142"
   d="M 230.07587,481.20309 C 216.19725,484.02671 193.1025,503.77018 187.27904,515.74985 C 183.43612,523.65652 180.55509,527.87511 178.02384,534.47234 C 176.02284,539.68643 170.45427,553.36499 178.95968,555.57439 C 181.51977,556.23957 205.35036,559.92492 219.23735,557.61725 C 221.55836,557.23143 231.00613,522.99315 236.38306,509.91425 C 241.31532,497.91639 244.80661,491.45019 230.07587,481.20309 L 230.07587,481.20309 z "
   id="path2234"
   style="fill:url(#linearGradient11256);fill-opacity:1;fill-rule:evenodd;stroke:#452f25;stroke-width:0.19873253;stroke-miterlimit:2.41420007" />
		<path
   clip-rule="evenodd"
   stroke-miterlimit="2.4142"
   d="M 163.63136,511.92061 C 166.70403,508.66021 169.44028,499.02836 181.63605,490.58481 C 192.76295,482.88015 202.954,480.25218 209.3291,478.75984 C 222.04768,475.78153 230.90101,474.91161 231.77453,475.18823 C 233.32342,475.6778 243.39188,483.37575 245.98731,491.05311"
   id="path2236"
   style="fill:none;fill-rule:evenodd;stroke:#452f25;stroke-width:0.19873253;stroke-miterlimit:2.41420007"
   sodipodi:nodetypes="csssc" />
		
			<path
   clip-rule="evenodd"
   stroke-miterlimit="2.4142"
   d="M 245.64664,385.64876 C 259.57456,394.71382 279.33245,396.46004 277.48122,385.43401 C 272.99921,358.73933 267.69577,357.84848 261.37183,365.56588 C 259.26385,368.13743 257.31402,368.3167 253.96134,371.01838 C 248.9621,375.04496 245.32011,380.59301 245.64664,385.64876 L 245.64664,385.64876 z "
   id="path2238"
   style="fill:#009bd8;fill-rule:evenodd;stroke:#452f25;stroke-width:0.19873253;stroke-miterlimit:2.41420007" />
		<path
   clip-rule="evenodd"
   stroke-miterlimit="2.4142"
   d="M 179.00247,533.01731 C 185.30037,537.41607 199.70458,546.81053 209.6947,550.70517 C 211.88361,551.55781 213.86135,552.14655 215.49304,552.3604 C 223.09423,553.35953 226.17248,540.73289 226.32039,539.53355"
   id="path2240"
   style="fill:none;fill-rule:evenodd;stroke:#452f25;stroke-width:0.19873253;stroke-miterlimit:2.41420007" />
		<path
   clip-rule="evenodd"
   stroke-miterlimit="2.4142"
   d="M 186.31063,518.06843 C 192.69876,521.89483 209.17282,533.7289 216.25957,535.50788 C 224.53521,537.58623 226.04387,533.66511 229.5333,530.28096"
   id="path2242"
   style="fill:none;fill-rule:evenodd;stroke:#452f25;stroke-width:0.19873253;stroke-miterlimit:2.41420007"
   sodipodi:nodetypes="csc" />
		<path
   clip-rule="evenodd"
   stroke-miterlimit="2.4142"
   d="M 194.87,505.15969 C 201.4572,512.23375 216.0512,522.25062 223.94263,523.75206 C 229.88702,524.88315 228.32046,521.13683 233.72902,517.0338"
   id="path2244"
   style="fill:none;fill-rule:evenodd;stroke:#452f25;stroke-width:0.19873253;stroke-miterlimit:2.41420007" />
		
			<path
   clip-rule="evenodd"
   stroke-miterlimit="2.4142"
   d="M 234.88812,485.69012 C 223.97612,484.40434 188.78886,514.21383 215.76839,516.15114 C 224.86545,516.80267 243.22981,502.3015 234.88812,485.69012 L 234.88812,485.69012 z "
   id="path2246"
   style="fill:url(#linearGradient11264);fill-opacity:1;fill-rule:evenodd;stroke:#452f25;stroke-width:0.19873253;stroke-miterlimit:2.41420007" />
		
			<path
   clip-rule="evenodd"
   stroke-miterlimit="2.4142"
   d="M 300.1127,447.54264 C 278.9343,450.19701 252.90084,438.9444 232.49362,428.39611 L 154.19883,387.9264 C 141.74258,381.83511 114.60676,367.47407 114.60676,350.93913 C 114.60676,341.3654 133.2902,320.47902 142.63285,320.47902 L 222.26257,316.12757 C 246.68388,314.79266 300.02805,305.87138 305.81988,306.24264 C 335.35485,308.13537 346.55245,362.31276 337.02654,403.00358 C 331.49983,426.61622 317.22306,445.39877 300.1127,447.54264 L 300.1127,447.54264 z "
   id="path2248"
   style="fill:url(#linearGradient3368);fill-opacity:1;fill-rule:evenodd;stroke:#452f25;stroke-width:0.19873253;stroke-miterlimit:2.41420007" />
		
			<path
   clip-rule="evenodd"
   stroke-miterlimit="2.4142"
   d="M -7.8049081,305.19619 C 34.04491,300.75011 308.31857,301.94489 302.5686,305.95237 C 266.79713,330.8799 264.64543,356.04493 263.96262,381.2045 C 262.47885,435.82232 301.68392,447.49896 297.80937,448.15323 C 240.78786,457.79156 88.25329,392.85749 -4.9927181,363.36741 C -33.175086,354.88564 -25.964605,307.12531 -7.8049081,305.19619 L -7.8049081,305.19619 z "
   id="path2250"
   style="fill:url(#linearGradient3358);fill-opacity:1;fill-rule:evenodd;stroke:#452f25;stroke-width:0.19873253;stroke-miterlimit:2.41420007" />
		
			<ellipse
   transform="matrix(3.3303476e-2,-0.9094172,0.9297065,3.2576683e-2,-55.57986,687.47019)"
   clip-rule="evenodd"
   stroke-miterlimit="2.4142"
   cx="353.10199"
   cy="374.742"
   rx="61.449001"
   ry="29.648001"
   id="ellipse2252"
   style="fill:url(#linearGradient3376);fill-opacity:1;fill-rule:evenodd;stroke:#452f25;stroke-width:0.21600001;stroke-miterlimit:2.41420007"
   sodipodi:cx="353.10199"
   sodipodi:cy="374.742"
   sodipodi:rx="61.449001"
   sodipodi:ry="29.648001" />
		
			<path
   clip-rule="evenodd"
   stroke-miterlimit="2.4142"
   d="M 215.14884,195.77584 C 183.10959,153.98942 150.62382,110.67881 121.25443,81.080439 C 108.98238,68.713129 108.10142,108.57042 107.00464,107.41022 C 98.67505,98.598141 82.71915,88.761439 83.07265,81.78748 C 83.85035,66.443681 103.46498,53.877999 123.92615,43.649102 C 138.49503,36.365756 187.53393,36.728832 207.8044,39.513319 C 234.70858,43.20959 274.10622,62.798368 272.99549,64.758429 C 263.49842,81.505392 247.24483,111.50051 240.29017,134.18316 C 238.63337,139.58743 234.90952,153.98669 231.67964,168.02014 C 227.65811,185.49781 223.54169,202.05277 215.14884,195.77584 L 215.14884,195.77584 z "
   id="path2254"
   style="fill:url(#linearGradient3240);fill-opacity:1;fill-rule:evenodd;stroke:#452f25;stroke-width:0.19873253;stroke-miterlimit:2.41420007;stroke-opacity:0" />
		
			<path
   style="fill:url(#linearGradient7316);fill-opacity:1;fill-rule:evenodd;stroke:#000000;stroke-width:0.92005795px;stroke-linecap:butt;stroke-linejoin:miter;stroke-opacity:0"
   d="M 104.9726,303.52403 C 104.20171,305.83955 102.36321,307.57101 100.12875,307.64415 C 68.61137,305.80866 77.79153,354.5848 76.54125,362.23587 C 75.04174,367.95539 67.82576,369.36274 63.4839,372.94822 C 58.701403,379.29932 72.45049,360.96452 72.75041,358.73377 C 73.88548,351.06666 74.2891,343.41928 74.22462,335.66104 C 74.22462,333.87565 74.22462,332.09026 74.22462,330.30487 C 72.72062,312.05716 82.7265,304.54216 101.39235,301.05195 C 102.94049,301.80912 103.49944,302.37121 104.9726,303.52403 z "
   id="path7304"
   sodipodi:nodetypes="ccccccccc" /><path
   style="fill:url(#linearGradient8299);fill-opacity:1;fill-rule:evenodd;stroke:#000000;stroke-width:0.92005795px;stroke-linecap:butt;stroke-linejoin:miter;stroke-opacity:0"
   d="M -12.543624,360.99984 L 156.36552,419.07439 C 253.66482,453.24758 242.28743,438.31452 285.24839,447.93459 C 272.89304,436.39822 261.40557,426.67855 258.29126,402.20114 L 72.35617,373.80241 L -20.382991,349.67097 L -12.543624,360.99984 z "
   id="path8291"
   sodipodi:nodetypes="ccccccc" /><path
   clip-rule="evenodd"
   stroke-miterlimit="2.4142"
   d="M 105.23528,303.07233 C 72.3067,303.07233 74.08629,322.22342 74.08629,350.95278 C 74.08629,371.84644 65.18645,384.90441 40.26745,360.52832 C 18.894619,339.62191 18.706705,306.53383 31.749016,290.89793 C 34.455156,287.65392 38.384553,290.60174 42.870816,287.41005 C 58.332808,276.40981 62.51938,289.3692 69.63963,289.3692 C 80.31907,289.3692 106.12554,288.27269 105.23528,303.07233 L 105.23528,303.07233 z "
   id="path2256"
   style="fill:url(#linearGradient4363);fill-opacity:1;fill-rule:evenodd;stroke:#452f25;stroke-width:0.19873253;stroke-miterlimit:2.41420007"
   sodipodi:nodetypes="cscssscc" />
	<path
   style="fill:url(#linearGradient4355);fill-opacity:1;fill-rule:evenodd;stroke:#000000;stroke-width:0.92005795px;stroke-linecap:butt;stroke-linejoin:miter;stroke-opacity:0"
   d="M 67.57089,292.50373 C 52.661786,294.79039 43.173126,312.77535 49.505039,334.98898 C 37.543812,318.91465 40.668123,288.20903 60.997312,284.77294 C 70.70567,287.97765 67.97622,290.52134 67.57089,292.50373 z "
   id="path3378"
   sodipodi:nodetypes="cccc" /><path
   style="fill:url(#linearGradient5344);fill-opacity:1;fill-rule:evenodd;stroke:#000000;stroke-width:0.92005795px;stroke-linecap:butt;stroke-linejoin:miter;stroke-opacity:0"
   d="M 104.45158,303.7452 C 66.01257,305.2992 77.93713,329.42601 73.17869,355.89457 C 73.16868,359.98308 71.19723,355.1338 70.49816,352.39852 C 61.597794,319.64693 60.524299,292.02318 102.36672,296.17044 C 107.34264,299.23827 103.88326,303.05029 104.45158,303.7452 z "
   id="path4367"
   sodipodi:nodetypes="ccccc" /><path
   style="fill:url(#linearGradient6323);fill-opacity:1;fill-rule:evenodd;stroke:#000000;stroke-width:0.92005795px;stroke-linecap:butt;stroke-linejoin:miter;stroke-opacity:0"
   d="M 36.544746,346.57177 C 25.619663,345.58295 24.731647,326.92675 23.444936,322.09833 C 21.277325,313.96429 25.826763,296.98485 32.375029,290.63503 C 34.46247,289.16547 51.113878,287.88681 48.093862,288.57189 C 33.244564,291.9404 22.542946,318.37138 36.544746,346.57177 z "
   id="path5346"
   sodipodi:nodetypes="cscsc" /><path
   style="fill:url(#linearGradient7302);fill-opacity:1;fill-rule:evenodd;stroke:#000000;stroke-width:0.92005795px;stroke-linecap:butt;stroke-linejoin:miter;stroke-opacity:0"
   d="M 38.520011,291.81094 C 21.593715,292.07183 26.778175,335.12802 23.326693,324.43923 C 20.989949,313.97245 22.611642,286.52037 35.197088,288.80617 C 37.617742,288.80617 38.953684,289.68989 38.520011,291.81094 z "
   id="path6325"
   sodipodi:nodetypes="cccc" /><path
   style="fill:url(#linearGradient11302);fill-opacity:1;fill-rule:evenodd;stroke:#000000;stroke-width:0.92005795px;stroke-linecap:butt;stroke-linejoin:miter;stroke-opacity:0"
   d="M 120.13599,407.55731 C 127.3602,405.2033 142.05654,414.7047 152.98998,418.26964 C 160.56852,420.7407 165.78168,421.56575 174.05024,421.56575 C 190.75576,431.93067 194.06389,427.22368 206.06183,434.75017 C 211.01042,435.96032 214.43533,437.62189 219.54039,438.8703 C 224.76067,440.14689 231.12818,438.66521 236.3886,439.69433 C 240.83526,440.56425 243.60538,441.98794 247.33992,443.81445 C 252.31819,446.24927 261.4293,444.41193 264.18813,447.11056 C 259.56422,460.4309 263.44656,474.02871 253.2368,481.71965 C 251.49628,485.12472 236.55241,475.45933 233.86136,476.7755 C 219.33329,466.85244 200.31551,482.34035 192.58326,480.89562 C 186.28351,476.27392 187.13262,474.93367 180.78952,471.83134 C 171.86567,467.46679 163.27799,461.0593 156.35962,456.99887 C 150.60658,453.62238 147.81666,449.15294 143.72347,443.81445 C 140.97131,440.22499 137.64213,437.25634 134.45695,433.10212 C 131.79084,429.62488 128.32772,426.28262 126.03286,424.03783 C 122.76368,420.84 122.18437,418.15688 120.13599,414.14952 C 119.13135,412.1841 120.13599,409.75471 120.13599,407.55731 z "
   id="path11294"
   sodipodi:nodetypes="csccsssccccssssssc" /><path
   style="fill:url(#linearGradient12281);fill-opacity:1;fill-rule:evenodd;stroke:#000000;stroke-width:0.94076586px;stroke-linecap:butt;stroke-linejoin:miter;stroke-opacity:0"
   d="M 284.16006,145.12829 C 285.89875,143.44701 289.05231,144.53591 291.51118,144.53591 C 293.7942,144.53591 290.69439,137.6249 289.6734,135.65033 C 284.26202,127.40051 277.62701,105.53248 267.00741,119.65629 C 251.42067,142.02845 244.79609,167.97144 233.92736,192.51804 C 233.54236,198.39751 232.63652,208.49391 232.08957,214.43584 C 252.66565,190.27826 259.70916,166.79549 284.16006,145.12829 z "
   id="path12273"
   sodipodi:nodetypes="csccccc" /><path
   style="fill:url(#linearGradient14241);fill-opacity:1;fill-rule:evenodd;stroke:#000000;stroke-width:0.92005795px;stroke-linecap:butt;stroke-linejoin:miter;stroke-opacity:0"
   d="M 104.13019,106.78782 C 103.56524,34.975316 162.06487,46.832864 216.17074,44.985867 C 178.50244,45.657467 113.62717,19.435462 81.38511,81.243012 L 104.13019,106.78782 z "
   id="path14233"
   sodipodi:nodetypes="cccc" /><path
   style="fill:url(#linearGradient2352);fill-opacity:1;fill-rule:evenodd;stroke:#000000;stroke-width:1px;stroke-linecap:butt;stroke-linejoin:miter;stroke-opacity:0"
   d="M 262.86653,210.8725 C 241.39301,222.05336 241.24629,280.08578 254.43085,288.69859 C 265.65123,291.29537 274.29157,276.13974 275.63252,273.45037 C 245.32777,302.52459 251.8582,230.25384 262.86653,210.8725 z "
   id="path2340"
   sodipodi:nodetypes="cccc" /></g>
</g><path
   style="fill:url(#linearGradient4314);fill-opacity:1;fill-rule:evenodd;stroke:#000000;stroke-width:1.03721178px;stroke-linecap:butt;stroke-linejoin:miter;stroke-opacity:0"
   d="M 113.19787,254.99338 L 126.15421,302.15986 C 127.52694,302.04209 196.3278,304.30362 195.25765,302.63018 C 196.83245,302.28637 113.19787,254.99338 113.19787,254.99338 z "
   id="path4306"
   sodipodi:nodetypes="cccc" />
<path
   style="fill:url(#linearGradient3335);fill-rule:evenodd;stroke:#000000;stroke-width:1px;stroke-linecap:butt;stroke-linejoin:miter;stroke-opacity:0;fill-opacity:1.0"
   d="M 118.30766,110.0713 C 135.34316,102.0965 192.66705,175.38398 210.9936,193.7 C 212.87873,198.61572 213.53828,203.10168 211.65014,200.95279 C 159.43523,141.52722 121.2042,115.09174 115.28857,115.20375 C 115.28857,112.8225 114.94339,112.08986 118.30766,110.0713 z "
   id="path3327"
   sodipodi:nodetypes="ccscc" /><path
   style="fill:url(#linearGradient5293);fill-opacity:1;fill-rule:evenodd;stroke:#000000;stroke-width:1px;stroke-linecap:butt;stroke-linejoin:miter;stroke-opacity:0"
   d="M 149.10234,574.7087 C 149.10234,574.7087 140.79792,656.91406 142.91321,658.48836 C 144.95852,660.01056 182.31229,632.67517 194.8172,593.68913 C 194.8172,593.68913 206.11458,575.66483 194.99245,581.3507 C 171.18548,593.52132 149.10234,575.98601 149.10234,574.7087 z "
   id="path5285"
   sodipodi:nodetypes="czcsc" /></svg>