/* XPM */
static char *OpenLieroX.32[] = {
/* columns rows colors chars-per-pixel */
"32 32 162 2",
"   c #000000",
".  c #00000B",
"X  c #090906",
"o  c #0B0B0A",
"O  c #000013",
"+  c #00001B",
"@  c #0A0911",
"#  c #0F0C1B",
"$  c #100F15",
"%  c #12120C",
"&  c #151511",
"*  c #13131C",
"=  c #1B1B13",
"-  c #181818",
";  c #010123",
":  c #000028",
">  c #0A0423",
",  c #0C0C21",
"<  c #0D0A29",
"1  c #110721",
"2  c #131324",
"3  c #181826",
"4  c #1E1E2E",
"5  c #1A1230",
"6  c #1A1A38",
"7  c #23112F",
"8  c #321B3B",
"9  c #3B1835",
"0  c #232317",
"q  c #23231D",
"w  c #28251E",
"e  c #202020",
"r  c #2C2C22",
"t  c #2F2F35",
"y  c #2B2B3D",
"u  c #352239",
"i  c #313135",
"p  c #343442",
"a  c #3C3C4A",
"s  c #491F3D",
"d  c #472F2B",
"f  c #482F2A",
"g  c #403835",
"h  c #493542",
"j  c #543741",
"k  c #434142",
"l  c #4A4A55",
"z  c #48485B",
"x  c #514A45",
"c  c #574F4E",
"v  c #56555F",
"b  c #5F5E72",
"n  c #7C4F48",
"m  c #676768",
"M  c #6F6F6E",
"N  c #6C6C73",
"B  c #6B6B7F",
"V  c #75737D",
"C  c #797981",
"Z  c #812913",
"A  c #943D22",
"S  c #AA3726",
"D  c #A34D30",
"F  c #A65131",
"G  c #B45A3C",
"H  c #835951",
"J  c #8E5559",
"K  c #817A79",
"L  c #AA5555",
"P  c #B95B6B",
"I  c #B46E4F",
"U  c #B86141",
"Y  c #AD7B7F",
"T  c #B66D6D",
"R  c #CF340E",
"E  c #D53342",
"W  c #DA421E",
"Q  c #D77B0B",
"!  c #D0534E",
"~  c #C6736B",
"^  c #CA736B",
"/  c #C57973",
"(  c #D96766",
")  c #E3717C",
"_  c #F37870",
"`  c #9C7A85",
"'  c #91817E",
"]  c #E68719",
"[  c #CB8C7F",
"{  c #D68577",
"}  c #D5847C",
"|  c #D9827D",
" . c #E9837E",
".. c #838283",
"X. c #82828B",
"o. c #8E8E8D",
"O. c #8F8F97",
"+. c #8E8D99",
"@. c #939394",
"#. c #94939A",
"$. c #99999C",
"%. c #9F9FA2",
"&. c #BF8080",
"*. c #A3A2A3",
"=. c #A3A3A9",
"-. c #B4B4B9",
";. c #BCBBBE",
":. c #BDBDC3",
">. c #C09092",
",. c #CE9794",
"<. c #CC9B99",
"1. c #D08D89",
"2. c #D98780",
"3. c #DC8A82",
"4. c #DE938A",
"5. c #CCA9AE",
"6. c #C6BFBF",
"7. c #DAB4BB",
"8. c #E98C86",
"9. c #E3948C",
"0. c #E69790",
"q. c #E89992",
"w. c #EC9F98",
"e. c #FF8080",
"r. c #E3A49F",
"t. c #EFA29B",
"y. c #F2A59E",
"u. c #E8A2A2",
"i. c #F3A9A2",
"p. c #FAA8A1",
"a. c #FBB2AB",
"s. c #F1BAB5",
"d. c #FBBBB5",
"f. c #F9BEB8",
"g. c #C0BDC2",
"h. c #F8B3C2",
"j. c #F7C2BC",
"k. c #FBC4BE",
"l. c #C0C0C7",
"z. c #C6C7C8",
"x. c #CEC6C8",
"c. c #CBC9CA",
"v. c #CECDD0",
"b. c #DCC9C7",
"n. c #D1D0D0",
"m. c #D8D5D4",
"M. c #DEDDDD",
"N. c #DFE0E1",
"B. c #EDD4D1",
"V. c #FCCECA",
"C. c #F7D1CD",
"Z. c #F6D6D3",
"A. c #F6DEDC",
"S. c #FDDAD7",
"D. c #FADDD9",
"F. c #E5E5E5",
"G. c #EBEBEB",
"H. c #FCEFED",
"J. c #FDF1EF",
"K. c #F3F3F3",
"L. c #FCFCFC",
"P. c None",
/* pixels */
"P.P.P.P.P.P.P.P.P.P.P.P.P.o o   o P.P.P.P.P.P.P.P.P.P.P.P.P.P.P.",
"P.P.P.P.P.P.P.P.P.P.P.* o . .   .   o X X P.P.P.P.P.P.P.P.P.P.P.",
"P.P.P.P.P.P.P.P.P.P.2 O . . . . .     .   - P.P.P.P.P.P.P.P.P.P.",
"P.P.P.P.P.P.P.P.P.P.V #.+.X.N l 3 . . . . o P.P.P.P.P.P.P.P.P.P.",
"P.P.P.P.P.& % = = w ..x.c.m.M.F.F.c.$.p O O 3 P.P.P.P.P.P.P.P.P.",
"P.P.P.P.& X o o % % q i a b +.:.F.K.K.G.-.a 3 P.P.P.P.P.P.P.P.P.",
"P.P.P.P.X X X X X o % & & - # , 6 C g.F.c.*.C P.P.P.P.P.P.P.P.P.",
"P.P.P.P.P.o     X X f ..o...M c i i t a X.$.O.P.P.P.P.P.P.P.P.P.",
"P.P.P.P.P.P.-       / Z.L.L.L.A.B.F.z.@.x w 0 = r P.P.P.P.P.P.P.",
"P.P.P.P.P.P.P.P.o X } V.L.L.L.S.H.L.L.L.s.H = = = = = P.P.P.P.P.",
"P.P.P.P.P.P.P.P.P.P.3.f.L.$.@.V.c.@.G.H.w.n % = = = = P.P.P.P.P.",
"P.P.P.P.P.P.P.P.P.P.9.a.D.k g d.K t c.f.9.f & = 0 P.P.P.P.P.P.P.",
"P.P.P.P.P.P.P.P.P.P.4.a.a.j.C.a.D.b.k.t.2.L P.P.P.P.P.P.P.P.P.P.",
"P.P.P.P.P.P.Q R D U 2.a.a.a.a.a.a.a.a.9.} P.P.P.P.P.P.P.P.P.P.P.",
"P.P.P.P.P.P.] W F A Z Z S _ y.a.a.a.y.3.} P.P.P.P.P.P.P.P.P.P.P.",
"P.P.P.P.P.P.P.P.P.G I { 1.<.,.r.r.a.q.{ 1.P.P.P.P.P.P.P.P.P.P.P.",
"P.P.P.P.P.P.P.P.P.P.P.J 1.a.a.a.a.i.4.| P.P.P.P.P.P.P.P.P.P.P.P.",
"P.P.P.P.P.P.P.P.P.P.P.: g.` ! 8. .( >.` P.P.P.P.P.P.P.P.P.P.P.P.",
"P.P.P.P.P.P.P.P.P.P.P.; z 6.P ) E 5.%.# P.P.P.P.P.P.P.P.P.P.P.P.",
"P.P.P.P.P.P.P.P.P.P.P.+ + O.x.f.7.*.. + P.P.P.P.P.P.P.P.P.P.P.P.",
"P.P.P.P.P.P.P.P.P.P.P.P.> 4 =.m.6.@ O ; P.P.P.P.P.P.P.P.P.P.P.P.",
"P.P.P.P.P.P.P.P.P.P.P.P.u v @ *.$ O 1 P.P.P.P.P.P.P.P.P.P.P.P.P.",
"P.P.P.P.P.P.P.P.P.P.P.P.9 O . m . O 7 P.P.P.P.P.P.P.P.P.P.P.P.P.",
"P.P.P.P.P.P.P.P.P.P.P.P.s O . N O + 5 P.P.P.P.P.P.P.P.P.P.P.P.P.",
"P.P.P.P.P.P.P.P.P.P.P.P.8 + . #.+ ; > P.P.P.P.P.P.P.P.P.P.P.P.P.",
"P.P.P.P.P.P.P.P.P.P.P.P.< + . =.+ ; + P.P.P.P.P.P.P.P.P.P.P.P.P.",
"P.P.P.P.P.P.P.P.P.P.P.P.6 + O y ; < P.P.P.P.P.P.P.P.P.P.P.P.P.P.",
"P.P.P.P.P.P.P.P.P.P.P.P.P.j $ O O h P.P.P.P.P.P.P.P.P.P.P.P.P.P.",
"P.P.P.P.P.P.P.P.P.P.P.P.P.} ^ ~ ~ T P.P.P.P.P.P.P.P.P.P.P.P.P.P.",
"P.P.P.P.P.P.P.P.P.P.P.P.P.4.0.0.q.P.P.P.P.P.P.P.P.P.P.P.P.P.P.P.",
"P.P.P.P.P.P.P.P.P.P.P.P.P.P.a.a.u.P.P.P.P.P.P.P.P.P.P.P.P.P.P.P.",
"P.P.P.P.P.P.P.P.P.P.P.P.P.P.e.V P.P.P.P.P.P.P.P.P.P.P.P.P.P.P.P."
};
