<?xml version="1.0" encoding="UTF-8" standalone="no"?>
<!-- Generator: Adobe Illustrator 12.0.0, SVG Export Plug-In . SVG Version: 6.00 Build 51448)  -->
<svg
   xmlns:dc="http://purl.org/dc/elements/1.1/"
   xmlns:cc="http://web.resource.org/cc/"
   xmlns:rdf="http://www.w3.org/1999/02/22-rdf-syntax-ns#"
   xmlns:svg="http://www.w3.org/2000/svg"
   xmlns="http://www.w3.org/2000/svg"
   xmlns:xlink="http://www.w3.org/1999/xlink"
   xmlns:sodipodi="http://sodipodi.sourceforge.net/DTD/sodipodi-0.dtd"
   xmlns:inkscape="http://www.inkscape.org/namespaces/inkscape"
   version="1.0"
   width="424.74701"
   height="424.5"
   viewBox="0 0 424.747 682.631"
   overflow="visible"
   enable-background="new 0 0 424.747 682.631"
   xml:space="preserve"
   id="svg2471"
   sodipodi:version="0.32"
   inkscape:version="0.45.1"
   sodipodi:docname="olx.svg"
   inkscape:output_extension="org.inkscape.output.svg.inkscape"
   sodipodi:docbase="/home/az/Desktop"><metadata
   id="metadata2528"><rdf:RDF><cc:Work
       rdf:about=""><dc:format>image/svg+xml</dc:format><dc:type
         rdf:resource="http://purl.org/dc/dcmitype/StillImage" /></cc:Work></rdf:RDF></metadata><defs
   id="defs2526"><linearGradient
     id="linearGradient2777"><stop
       style="stop-color:#000000;stop-opacity:1;"
       offset="0"
       id="stop2779" /><stop
       style="stop-color:#000025;stop-opacity:1;"
       offset="1"
       id="stop2781" /></linearGradient><linearGradient
     id="linearGradient2769"><stop
       style="stop-color:#000000;stop-opacity:1;"
       offset="0"
       id="stop2771" /><stop
       style="stop-color:#1a1a12;stop-opacity:1;"
       offset="1"
       id="stop2773" /></linearGradient><linearGradient
     id="linearGradient13711"><stop
       style="stop-color:#fba30d;stop-opacity:1;"
       offset="0"
       id="stop13713" /><stop
       style="stop-color:#fb1f00;stop-opacity:1;"
       offset="1"
       id="stop13715" /></linearGradient><linearGradient
     id="linearGradient13701"><stop
       style="stop-color:#ba6544;stop-opacity:1;"
       offset="0"
       id="stop13703" /><stop
       id="stop13709"
       offset="0.5"
       style="stop-color:#6e1500;stop-opacity:1;" /><stop
       style="stop-color:#ba6544;stop-opacity:1;"
       offset="1"
       id="stop13705" /></linearGradient><linearGradient
     id="linearGradient13693"><stop
       style="stop-color:#f6322b;stop-opacity:1;"
       offset="0"
       id="stop13695" /><stop
       style="stop-color:#6c0000;stop-opacity:1;"
       offset="1"
       id="stop13697" /></linearGradient><linearGradient
     id="linearGradient13685"><stop
       style="stop-color:#c00000;stop-opacity:1;"
       offset="0"
       id="stop13687" /><stop
       style="stop-color:#f62953;stop-opacity:1;"
       offset="1"
       id="stop13689" /></linearGradient><linearGradient
     id="linearGradient13675"><stop
       style="stop-color:#f62953;stop-opacity:1;"
       offset="0"
       id="stop13677" /><stop
       style="stop-color:#ab0500;stop-opacity:1;"
       offset="1"
       id="stop13679" /></linearGradient><linearGradient
     id="linearGradient13659"><stop
       style="stop-color:#ffffff;stop-opacity:1;"
       offset="0"
       id="stop13661" /><stop
       style="stop-color:#000000;stop-opacity:1;"
       offset="1"
       id="stop13663" /></linearGradient><linearGradient
     id="linearGradient13651"><stop
       style="stop-color:#ffffff;stop-opacity:1;"
       offset="0"
       id="stop13653" /><stop
       style="stop-color:#000000;stop-opacity:0.98969072;"
       offset="1"
       id="stop13655" /></linearGradient><linearGradient
     inkscape:collect="always"
     id="linearGradient13643"><stop
       style="stop-color:#452f25;stop-opacity:1;"
       offset="0"
       id="stop13645" /><stop
       style="stop-color:#452f25;stop-opacity:0;"
       offset="1"
       id="stop13647" /></linearGradient><linearGradient
     id="linearGradient11697"><stop
       style="stop-color:#000025;stop-opacity:1;"
       offset="0"
       id="stop11699" /><stop
       style="stop-color:#000000;stop-opacity:1;"
       offset="1"
       id="stop11701" /></linearGradient><linearGradient
     id="linearGradient11689"><stop
       style="stop-color:#000024;stop-opacity:1;"
       offset="0"
       id="stop11691" /><stop
       style="stop-color:#000000;stop-opacity:1;"
       offset="1"
       id="stop11693" /></linearGradient><linearGradient
     inkscape:collect="always"
     id="linearGradient11681"><stop
       style="stop-color:#c26860;stop-opacity:1;"
       offset="0"
       id="stop11683" /><stop
       style="stop-color:#c26860;stop-opacity:0;"
       offset="1"
       id="stop11685" /></linearGradient><linearGradient
     inkscape:collect="always"
     id="linearGradient8730"><stop
       style="stop-color:#c26860;stop-opacity:1;"
       offset="0"
       id="stop8732" /><stop
       style="stop-color:#c26860;stop-opacity:0;"
       offset="1"
       id="stop8734" /></linearGradient><linearGradient
     inkscape:collect="always"
     id="linearGradient8720"><stop
       style="stop-color:#c26860;stop-opacity:1;"
       offset="0"
       id="stop8722" /><stop
       style="stop-color:#c26860;stop-opacity:0;"
       offset="1"
       id="stop8724" /></linearGradient><linearGradient
     id="linearGradient7741"><stop
       style="stop-color:#c26860;stop-opacity:1;"
       offset="0"
       id="stop7743" /><stop
       style="stop-color:#c26860;stop-opacity:0;"
       offset="1"
       id="stop7745" /></linearGradient><linearGradient
     id="linearGradient6764"><stop
       style="stop-color:#ea7e4c;stop-opacity:1;"
       offset="0"
       id="stop6766" /><stop
       style="stop-color:#e6e6e6;stop-opacity:0;"
       offset="1"
       id="stop6768" /></linearGradient><linearGradient
     id="linearGradient4810"><stop
       style="stop-color:#342f3a;stop-opacity:1;"
       offset="0"
       id="stop4812" /><stop
       id="stop4818"
       offset="0.10714286"
       style="stop-color:#918e8e;stop-opacity:0.49803922;" /><stop
       style="stop-color:#d5d5d5;stop-opacity:0.24705882;"
       offset="0.71301019"
       id="stop4820" /><stop
       style="stop-color:#6e6e71;stop-opacity:1;"
       offset="1"
       id="stop4814" /></linearGradient><linearGradient
     id="linearGradient4800"><stop
       style="stop-color:#a8abae;stop-opacity:1;"
       offset="0"
       id="stop4802" /><stop
       style="stop-color:#ffffff;stop-opacity:1;"
       offset="1"
       id="stop4804" /></linearGradient><linearGradient
     id="linearGradient4790"><stop
       style="stop-color:#000000;stop-opacity:0.46391752;"
       offset="0"
       id="stop4792" /><stop
       style="stop-color:#e6e6e6;stop-opacity:0;"
       offset="1"
       id="stop4794" /></linearGradient><linearGradient
     id="linearGradient3803"><stop
       style="stop-color:#000000;stop-opacity:1;"
       offset="0"
       id="stop3805" /><stop
       id="stop3811"
       offset="0.07142857"
       style="stop-color:#000002;stop-opacity:1;" /><stop
       style="stop-color:#ffffff;stop-opacity:1;"
       offset="1"
       id="stop3807" /></linearGradient><linearGradient
     id="linearGradient3793"><stop
       style="stop-color:#9b9b9b;stop-opacity:0.84536082;"
       offset="0"
       id="stop3795" /><stop
       style="stop-color:#ffffff;stop-opacity:0;"
       offset="1"
       id="stop3797" /></linearGradient><linearGradient
     id="linearGradient3783"><stop
       style="stop-color:#9b9b9e;stop-opacity:1;"
       offset="0"
       id="stop3785" /><stop
       style="stop-color:#ffffff;stop-opacity:0;"
       offset="1"
       id="stop3787" /></linearGradient><linearGradient
     id="linearGradient3771"><stop
       style="stop-color:#9b9b9b;stop-opacity:0.95876288;"
       offset="0"
       id="stop3773" /><stop
       style="stop-color:#efeff0;stop-opacity:0;"
       offset="1"
       id="stop3775" /></linearGradient><linearGradient
     id="linearGradient3761"><stop
       style="stop-color:#9b969b;stop-opacity:1;"
       offset="0"
       id="stop3763" /><stop
       style="stop-color:#ffffff;stop-opacity:0;"
       offset="1"
       id="stop3765" /></linearGradient><linearGradient
     gradientTransform="matrix(6.2330433,0,0,6.4,-1367.1326,-1209.4343)"
     gradientUnits="userSpaceOnUse"
     xlink:href="#linearGradient3282"
     id="linearGradient4394"
     y2="182.71933"
     x2="280.17856"
     y1="225.04076"
     x1="281.25" /><linearGradient
     gradientTransform="matrix(6.2330433,0,0,6.4,-1363.7934,-1212.8628)"
     gradientUnits="userSpaceOnUse"
     xlink:href="#linearGradient3272"
     id="linearGradient4391"
     y2="206.64789"
     x2="280"
     y1="223.96933"
     x1="280" /><linearGradient
     gradientTransform="matrix(6.2692687,0,0,6.5275168,-1379.0426,-1221.8661)"
     gradientUnits="userSpaceOnUse"
     xlink:href="#linearGradient3296"
     id="linearGradient4388"
     y2="184.86218"
     x2="287.5"
     y1="205.39789"
     x1="273.39285" /><linearGradient
     gradientTransform="matrix(6.2330433,0,0,6.4,-1371.5847,-1202.5771)"
     gradientUnits="userSpaceOnUse"
     xlink:href="#linearGradient2284"
     id="linearGradient4384"
     y2="184.86218"
     x2="287.5"
     y1="205.39789"
     x1="273.39285" /><linearGradient
     gradientTransform="matrix(4.4792575,0,0,6.3999994,-985.45958,-1187.0505)"
     gradientUnits="userSpaceOnUse"
     xlink:href="#linearGradient3262"
     id="linearGradient4378"
     y2="203.25504"
     x2="290.53571"
     y1="213.96933"
     x1="290.17856" /><linearGradient
     gradientTransform="matrix(0.847721,0,0,0.8477209,72.233444,2.9648719)"
     gradientUnits="userSpaceOnUse"
     xlink:href="#linearGradient3262"
     id="linearGradient4374"
     y2="203.25504"
     x2="290.53571"
     y1="213.96933"
     x1="290.17856" /><linearGradient
     gradientTransform="translate(-0.7142858,1.0714286)"
     gradientUnits="userSpaceOnUse"
     xlink:href="#linearGradient2284"
     id="linearGradient4372"
     y2="184.86218"
     x2="287.5"
     y1="205.39789"
     x1="273.39285" /><linearGradient
     gradientTransform="matrix(1.0128436,0,0,1.0128436,-1.9241486,-1.9289928)"
     gradientUnits="userSpaceOnUse"
     xlink:href="#linearGradient3296"
     id="linearGradient4370"
     y2="184.86218"
     x2="287.5"
     y1="205.39789"
     x1="273.39285" /><linearGradient
     gradientTransform="translate(0.5357143,-0.5357143)"
     gradientUnits="userSpaceOnUse"
     xlink:href="#linearGradient3272"
     id="linearGradient4368"
     y2="206.64789"
     x2="280"
     y1="223.96933"
     x1="280" /><linearGradient
     gradientUnits="userSpaceOnUse"
     xlink:href="#linearGradient3282"
     id="linearGradient4366"
     y2="182.71933"
     x2="280.17856"
     y1="225.04076"
     x1="281.25" /><linearGradient
     gradientTransform="matrix(1.0128436,0,0,1.0128436,-1.9241486,-1.9289928)"
     gradientUnits="userSpaceOnUse"
     xlink:href="#linearGradient3296"
     id="linearGradient3294"
     y2="184.86218"
     x2="287.5"
     y1="205.39789"
     x1="273.39285" /><linearGradient
     gradientUnits="userSpaceOnUse"
     xlink:href="#linearGradient3282"
     id="linearGradient3288"
     y2="182.71933"
     x2="280.17856"
     y1="225.04076"
     x1="281.25" /><linearGradient
     gradientTransform="translate(0.5357143,-0.5357143)"
     gradientUnits="userSpaceOnUse"
     xlink:href="#linearGradient3272"
     id="linearGradient3278"
     y2="206.64789"
     x2="280"
     y1="223.96933"
     x1="280" /><linearGradient
     gradientTransform="matrix(0.847721,0,0,0.8477209,72.233444,2.9648719)"
     gradientUnits="userSpaceOnUse"
     xlink:href="#linearGradient3262"
     id="linearGradient3268"
     y2="203.25504"
     x2="290.53571"
     y1="213.96933"
     x1="290.17856" /><linearGradient
     gradientTransform="translate(-0.7142858,1.0714286)"
     gradientUnits="userSpaceOnUse"
     xlink:href="#linearGradient2284"
     id="linearGradient2290"
     y2="184.86218"
     x2="287.5"
     y1="205.39789"
     x1="273.39285" /><linearGradient
     id="linearGradient2284"><stop
       id="stop2286"
       offset="0"
       style="stop-color:#0590b4;stop-opacity:1" /><stop
       id="stop2288"
       offset="1"
       style="stop-color:#14446f;stop-opacity:1" /></linearGradient><linearGradient
     id="linearGradient3262"><stop
       id="stop3264"
       offset="0"
       style="stop-color:#0d658d;stop-opacity:1" /><stop
       id="stop3266"
       offset="1"
       style="stop-color:#13194e;stop-opacity:1" /></linearGradient><linearGradient
     id="linearGradient3272"><stop
       id="stop3274"
       offset="0"
       style="stop-color:#a5a6a7;stop-opacity:1" /><stop
       id="stop3276"
       offset="1"
       style="stop-color:#fdfdfe;stop-opacity:1" /></linearGradient><linearGradient
     id="linearGradient3282"><stop
       id="stop3284"
       offset="0"
       style="stop-color:#666666;stop-opacity:1" /><stop
       id="stop3286"
       offset="1"
       style="stop-color:#f2f2f2;stop-opacity:1" /></linearGradient><linearGradient
     id="linearGradient3296"><stop
       id="stop3298"
       offset="0"
       style="stop-color:#000000;stop-opacity:1" /><stop
       id="stop3300"
       offset="1"
       style="stop-color:#14446f;stop-opacity:1" /></linearGradient><linearGradient
     inkscape:collect="always"
     xlink:href="#linearGradient3803"
     id="linearGradient3809"
     x1="174.12798"
     y1="288.92252"
     x2="172.84763"
     y2="256.9137"
     gradientUnits="userSpaceOnUse" /><linearGradient
     inkscape:collect="always"
     xlink:href="#linearGradient3803"
     id="linearGradient3815"
     gradientUnits="userSpaceOnUse"
     x1="174.12798"
     y1="288.92252"
     x2="172.84763"
     y2="256.9137" /><linearGradient
     inkscape:collect="always"
     xlink:href="#linearGradient4790"
     id="linearGradient4796"
     x1="168.68648"
     y1="230.98654"
     x2="168.36638"
     y2="249.23158"
     gradientUnits="userSpaceOnUse"
     gradientTransform="matrix(1.9416813,0,0,1.9074926,-162.9083,-288.02662)" /><linearGradient
     inkscape:collect="always"
     xlink:href="#linearGradient4800"
     id="linearGradient4806"
     x1="265.4617"
     y1="155.20239"
     x2="256.15839"
     y2="194.82726"
     gradientUnits="userSpaceOnUse" /><linearGradient
     inkscape:collect="always"
     xlink:href="#linearGradient4810"
     id="linearGradient4816"
     x1="126.11474"
     y1="197.69737"
     x2="264.39285"
     y2="235.46777"
     gradientUnits="userSpaceOnUse"
     gradientTransform="matrix(1.8891369,0,0,2.2100621,-153.74636,-353.34562)" /><linearGradient
     inkscape:collect="always"
     xlink:href="#linearGradient7741"
     id="linearGradient7747"
     x1="248.97018"
     y1="311.43906"
     x2="222.03615"
     y2="299.51031"
     gradientUnits="userSpaceOnUse"
     gradientTransform="matrix(1.9032704,0,0,1.9078132,-156.22379,-288.11057)" /><linearGradient
     inkscape:collect="always"
     xlink:href="#linearGradient8720"
     id="linearGradient8726"
     x1="126.24845"
     y1="280.65732"
     x2="138.74429"
     y2="281.10995"
     gradientUnits="userSpaceOnUse"
     gradientTransform="matrix(1.9032704,0,0,1.9078132,-156.22379,-288.11057)" /><linearGradient
     inkscape:collect="always"
     xlink:href="#linearGradient8730"
     id="linearGradient8736"
     x1="146.66606"
     y1="333.62006"
     x2="153.6825"
     y2="329.09332"
     gradientUnits="userSpaceOnUse"
     gradientTransform="matrix(1.9032704,0,0,1.9078132,-156.22379,-288.11057)" /><linearGradient
     inkscape:collect="always"
     xlink:href="#linearGradient11681"
     id="linearGradient11687"
     x1="184.69061"
     y1="466.93228"
     x2="183.55893"
     y2="490.6976"
     gradientUnits="userSpaceOnUse"
     gradientTransform="matrix(1.9032704,0,0,1.9078132,-156.22379,-288.11057)" /><linearGradient
     inkscape:collect="always"
     xlink:href="#linearGradient11689"
     id="linearGradient11695"
     x1="270.5668"
     y1="495.26489"
     x2="216.00447"
     y2="468.60165"
     gradientUnits="userSpaceOnUse" /><linearGradient
     inkscape:collect="always"
     xlink:href="#linearGradient11697"
     id="linearGradient11703"
     x1="149.05922"
     y1="497.07257"
     x2="202.84761"
     y2="490.7457"
     gradientUnits="userSpaceOnUse" /><linearGradient
     inkscape:collect="always"
     xlink:href="#linearGradient13643"
     id="linearGradient13649"
     x1="167.24666"
     y1="473.57275"
     x2="168.0145"
     y2="466.34207"
     gradientUnits="userSpaceOnUse" /><linearGradient
     inkscape:collect="always"
     xlink:href="#linearGradient13651"
     id="linearGradient13657"
     x1="251.21846"
     y1="424.76547"
     x2="146.73743"
     y2="324.43936"
     gradientUnits="userSpaceOnUse" /><linearGradient
     inkscape:collect="always"
     xlink:href="#linearGradient13659"
     id="linearGradient13665"
     x1="153.31586"
     y1="398.10223"
     x2="281.01492"
     y2="300.48761"
     gradientUnits="userSpaceOnUse" /><linearGradient
     inkscape:collect="always"
     xlink:href="#linearGradient11689"
     id="linearGradient13667"
     x1="212.52177"
     y1="530.51465"
     x2="208.0327"
     y2="689.59027"
     gradientUnits="userSpaceOnUse" /><linearGradient
     inkscape:collect="always"
     xlink:href="#linearGradient13675"
     id="linearGradient13681"
     x1="198.20401"
     y1="410.75595"
     x2="208.26514"
     y2="387.24429"
     gradientUnits="userSpaceOnUse" /><linearGradient
     inkscape:collect="always"
     xlink:href="#linearGradient13685"
     id="linearGradient13691"
     x1="221.80898"
     y1="390.3941"
     x2="237.28766"
     y2="413.9194"
     gradientUnits="userSpaceOnUse" /><linearGradient
     inkscape:collect="always"
     xlink:href="#linearGradient13693"
     id="linearGradient13699"
     x1="176.53386"
     y1="314.49713"
     x2="173.43813"
     y2="332.12198"
     gradientUnits="userSpaceOnUse" /><linearGradient
     inkscape:collect="always"
     xlink:href="#linearGradient13701"
     id="linearGradient13707"
     x1="93.722961"
     y1="319.46826"
     x2="99.527466"
     y2="290.09351"
     gradientUnits="userSpaceOnUse" /><linearGradient
     inkscape:collect="always"
     xlink:href="#linearGradient13711"
     id="linearGradient13717"
     x1="35.677944"
     y1="297.77609"
     x2="58.122021"
     y2="299.70969"
     gradientUnits="userSpaceOnUse" /><linearGradient
     inkscape:collect="always"
     xlink:href="#linearGradient2769"
     id="linearGradient2775"
     x1="67.003029"
     y1="175.37172"
     x2="107.93592"
     y2="94.569115"
     gradientUnits="userSpaceOnUse" /><linearGradient
     inkscape:collect="always"
     xlink:href="#linearGradient2777"
     id="linearGradient2783"
     x1="238.27487"
     y1="19.88793"
     x2="208.19226"
     y2="128.849"
     gradientUnits="userSpaceOnUse" /></defs><sodipodi:namedview
   inkscape:window-height="1212"
   inkscape:window-width="1202"
   inkscape:pageshadow="2"
   inkscape:pageopacity="0.0"
   guidetolerance="10.0"
   gridtolerance="10.0"
   objecttolerance="10.0"
   borderopacity="1.0"
   bordercolor="#666666"
   pagecolor="#ffffff"
   id="base"
   inkscape:zoom="0.55300353"
   inkscape:cx="517.40925"
   inkscape:cy="-173.48641"
   inkscape:window-x="-14"
   inkscape:window-y="25"
   inkscape:current-layer="svg2471"
   showgrid="false"
   showborder="true"
   borderlayer="false"
   inkscape:showpageshadow="false"
   height="424.5px"
   width="424.74701px" />
<g
   id="Siatka"
   display="none"
   style="display:none">
</g>
<g
   id="Warstwa_1">
</g>
<g
   id="Pulpit">
</g>
<g
   id="Prowadnice">
</g>
<g
   id="Page_1"
   transform="matrix(1.113221,0,0,0.9554972,-31.38343,11.601171)">
	<g
   id="Warstwa_1_1_">
		
			<path
   clip-rule="evenodd"
   stroke-miterlimit="2.4142"
   d="M 100.386,157.85 C 99.865,174.211 108.662,221.156 114.572,263.424 C 116.542,277.513 113.661,303.104 115.151,311.329 C 118.861,331.812 128.814,331.845 132.999,338.868 C 147.822,363.741 149.068,364.626 149.068,394.402 C 149.068,421.341 150.474,446.461 153.086,473.329 L 158.049,524.373 C 160.355,548.092 172.938,685.313 199.876,682.478 C 240.285,678.225 260.137,515.393 265.099,475.692 C 268.644,447.335 268.233,439.372 271.244,411.89 C 275.658,371.587 293.562,347.043 300.288,316.452 C 312.33,261.683 333.584,211.434 334.31,155.859 C 336.105,18.502 105.28,4.412 100.386,157.85 L 100.386,157.85 z "
   id="path2479"
   style="fill:#fcb3ac;fill-rule:evenodd;stroke:#452f25;stroke-width:0.21600001;stroke-miterlimit:2.41420007" />
		
			<polygon
   clip-rule="evenodd"
   stroke-miterlimit="2.4142"
   points="145.981,376.902 216.89,396.756 275.035,389.666 253.762,538.573 158.745,532.9 145.981,376.902 "
   id="polygon2481"
   style="fill:#f62953;fill-rule:evenodd;stroke:#452f25;stroke-width:0.21600001;stroke-miterlimit:2.41420007" />
		
			<path
   clip-rule="evenodd"
   stroke-miterlimit="2.4142"
   d="M 155.215,538.566 C 155.215,556.999 165.846,578.254 165.846,598.104 C 165.846,621.615 243.922,623.83 243.121,607.32 C 242.592,596.417 270.52,541.152 257.288,534.311 C 230.557,520.491 157.342,526.515 155.215,538.566 L 155.215,538.566 z "
   id="path2483"
   style="fill:url(#linearGradient13667);fill-opacity:1;fill-rule:evenodd;stroke:#ccc3be;stroke-width:0.21600001;stroke-miterlimit:2.41420007" />
		
			<polygon
   clip-rule="evenodd"
   stroke-miterlimit="2.4142"
   points="209.092,388.257 231.069,388.966 229.652,409.526 222.563,418.033 235.316,484.653 210.51,586.703 188.538,485.359 208.382,418.033 200.584,405.981 209.092,388.257 "
   id="polygon2485"
   style="fill:#ffffff;fill-rule:evenodd;stroke:#452f25;stroke-width:0.21600001;stroke-miterlimit:2.41420007" />
		
			<path
   clip-rule="evenodd"
   stroke-miterlimit="2.4142"
   d="M 278.569,384.003 C 279.501,377.431 289.353,357.727 286.364,362.06 C 276.909,375.763 238.461,381.109 219.044,386.573 C 213.894,388.022 220.63,405.806 227.929,417.115 C 232.949,424.892 245.607,410.309 255.344,404.158 C 264.962,398.082 276.812,396.399 278.569,384.003 L 278.569,384.003 z "
   id="path2487"
   style="fill:url(#linearGradient13691);fill-opacity:1;fill-rule:evenodd;stroke:#452f25;stroke-width:0.21600001;stroke-miterlimit:2.41420007" />
		
			<path
   clip-rule="evenodd"
   stroke-miterlimit="2.4142"
   d="M 139.615,355.646 C 156.631,371.54 181.444,374.474 214.764,386.13 C 218.858,387.563 202.902,414.193 200.754,418.536 C 198.653,422.786 151.997,381.497 148.832,378.332 C 146.705,376.206 145.286,357.772 139.615,355.646 L 139.615,355.646 z "
   id="path2489"
   style="fill:url(#linearGradient13681);fill-opacity:1;fill-rule:evenodd;stroke:#452f25;stroke-width:0.21600001;stroke-miterlimit:2.41420007" />
		
			<path
   clip-rule="evenodd"
   stroke-miterlimit="2.4142"
   d="M 201.29,551.336 C 197.991,614.54 165.978,610.195 160.163,574.026 C 153.837,534.683 143.924,464.697 141.189,430.568 C 138.463,396.552 138.894,341.557 141.727,352.792 C 150.331,386.906 177.187,353.942 202.755,445.136 C 211.716,477.099 203.595,507.166 201.29,551.336 L 201.29,551.336 z "
   id="path2491"
   style="fill:url(#linearGradient11703);fill-opacity:1;fill-rule:evenodd;stroke:#ece9e7;stroke-width:0.21600001;stroke-miterlimit:2.41420007;stroke-opacity:0" />
		
			<path
   clip-rule="evenodd"
   stroke-miterlimit="2.4142"
   d="M 141.727,355.628 C 145.46,386.137 151.015,394.642 151.799,398.604 C 152.681,403.063 157.776,403.031 172.927,401.01 L 163,418.029 C 188.054,438.829 191.834,456.791 206.962,476.173 C 207.79,453.27 197.627,382.845 141.727,355.628 L 141.727,355.628 z "
   id="path2493"
   style="fill:url(#linearGradient13665);fill-opacity:1;fill-rule:evenodd;stroke:#452f25;stroke-width:0.21600001;stroke-miterlimit:2.41420007" />
		
			<path
   clip-rule="evenodd"
   stroke-miterlimit="2.4142"
   d="M 284.962,365.556 C 257.00263,386.98956 245.34003,408.52592 230.083,432.602 C 190.33135,495.33137 219.7,583.961 238.365,599.233 C 255.103,612.93 279.557,471.223 284.962,365.556 L 284.962,365.556 z "
   id="path2495"
   style="fill:url(#linearGradient11695);fill-opacity:1;fill-rule:evenodd;stroke:#ece9e7;stroke-width:0.21600001;stroke-miterlimit:2.41420007;stroke-opacity:0"
   sodipodi:nodetypes="csscc" />
		
			<path
   clip-rule="evenodd"
   stroke-miterlimit="2.4142"
   d="M 287.797,364.139 C 260.109,375.47 223.222,404.055 218.313,445.677 L 212.641,475.463 C 233.442,445.176 239.259,435.923 254.481,423.695 L 248.092,403.841 C 255.006,402.778 259.26,407.1 265.927,407.846 C 276.384,409.016 281.001,380.093 287.797,364.139 L 287.797,364.139 z "
   id="path2497"
   style="fill:url(#linearGradient13657);fill-opacity:1;fill-rule:evenodd;stroke:#452f25;stroke-width:0.21600001;stroke-miterlimit:2.41420007" />
		
			<polygon
   clip-rule="evenodd"
   stroke-miterlimit="2.4142"
   points="155.264,464.804 165.889,449.22 181.474,468.346 155.264,464.804 "
   id="polygon2499"
   style="fill:#ffffff;fill-rule:evenodd;stroke:#452f25;stroke-width:0.21600001;stroke-miterlimit:2.41420007" />
		
			<polygon
   clip-rule="evenodd"
   stroke-miterlimit="2.4142"
   points="156.681,464.096 180.057,467.638 180.057,474.013 155.972,469.763 156.681,464.096 "
   id="polygon2501"
   style="fill:url(#linearGradient13649);fill-opacity:1;fill-rule:evenodd;stroke:#dcd7d3;stroke-width:0.21600001;stroke-miterlimit:2.41420007" />
		
			<path
   clip-rule="evenodd"
   stroke-miterlimit="2.4142"
   d="M 197.058,268.583 C 215.79,202.558 233.067,84.978 147.472,90.78 C 126.976,92.169 131.179,129.74 131.179,143.2 C 131.179,191.37 129.054,266.458 197.058,268.583 L 197.058,268.583 z "
   id="path2503"
   style="fill:#ffffff;fill-rule:evenodd;stroke:#452f25;stroke-width:0.21600001;stroke-miterlimit:2.41420007" />
		
			<path
   clip-rule="evenodd"
   stroke-miterlimit="2.4142"
   d="M 225.383,274.667 C 211.552,214.975 223.249,88.638 307.625,109.2 C 327.583,114.062 315.199,150.87 312.147,163.978 C 301.224,210.891 278.99,282.841 225.383,274.667 L 225.383,274.667 z "
   id="path2505"
   style="fill:url(#linearGradient4806);fill-opacity:1;fill-rule:evenodd;stroke:#452f25;stroke-width:0.21600001;stroke-miterlimit:2.41420007" />
		
			<path
   clip-rule="evenodd"
   stroke-miterlimit="2.4142"
   d="M 104.969,107.782 C 104.969,56.778 141.805,0.108 202.725,0.108 C 233.894,0.108 244.793,24.355 263.646,18.526 C 332.375,-2.725 351.867,147.349 335.9,170.119 C 326.627,183.345 314.571,165.088 300.482,163.035 L 154.555,141.784 C 148.888,141.784 25.63,123.366 97.885,123.366 C 107.802,123.366 106.386,114.865 104.969,107.782 L 104.969,107.782 z "
   id="path2507"
   style="fill:url(#linearGradient2783);fill-opacity:1;fill-rule:evenodd;stroke:#ece9e7;stroke-width:0.21600001;stroke-miterlimit:2.41420007" />
		
			<path
   clip-rule="evenodd"
   stroke-miterlimit="2.4142"
   d="M 106.385,109.199 C 167.236,78.643 329.823,168.162 335.192,169.411 C 339.549,170.425 347.895,137.108 337.716,128.103 C 256.55,56.301 115.869,64.518 114.361,63.408 C 108.75,59.277 102.002,94.456 106.385,109.199 L 106.385,109.199 z "
   id="path2509"
   style="fill:#ffffff;fill-rule:evenodd;stroke:#ece9e7;stroke-width:0.21600001;stroke-miterlimit:2.41420007" />
		
			<path
   clip-rule="evenodd"
   stroke-miterlimit="2.4142"
   d="M 420.906,218.289 C 454.908,185.704 247.149,155.636 181.474,130.45 C 149.089,118.032 11.698,36.21 0.129,127.617 C -1.65,141.669 111.358,230.812 106.272,201.912 C 103.886,188.351 103.89,152.041 140.388,151.702 C 193.93,151.204 335.579,169.615 326.406,209.812 L 316.066,255.125 C 314.175,263.41 432.24,216.872 420.906,218.289 L 420.906,218.289 z "
   id="path2511"
   style="fill:url(#linearGradient2775);fill-opacity:1;fill-rule:evenodd;stroke:#ece9e7;stroke-width:0.21600001;stroke-miterlimit:2.41420007" />
		
			<path
   clip-rule="evenodd"
   stroke-miterlimit="2.4142"
   d="M 185.016,223.956 C 168.015,223.956 169.356,252.268 185.724,249.458 C 200.711,246.884 198.829,223.248 185.016,223.956 L 185.016,223.956 z "
   id="path2513"
   style="fill:#452f25;fill-rule:evenodd;stroke:#452f25;stroke-width:0.21600001;stroke-miterlimit:2.41420007" />
		
			<path
   clip-rule="evenodd"
   stroke-miterlimit="2.4142"
   d="M 242.394,226.79 C 228.227,226.79 222.708,253.054 239.561,252.291 C 256.105,251.542 254.318,231.748 242.394,226.79 L 242.394,226.79 z "
   id="path2515"
   style="fill:#452f25;fill-rule:evenodd;stroke:#452f25;stroke-width:0.21600001;stroke-miterlimit:2.41420007" />
		
			<path
   clip-rule="evenodd"
   stroke-miterlimit="2.4142"
   d="M 151.722,342.963 C 149.066,339.421 152.622,331.023 150.092,327.165 C 145.873,320.736 136.495,315.687 139.444,308.016 C 142.984,298.81 149.474,311.41 158.505,317.178 C 167.535,322.947 179.106,321.884 183.364,323.128 L 214.06,332.101 C 221.619,334.31 242.204,338.125 234.839,338.712 C 214.686,340.321 153.616,337.228 151.722,342.963 L 151.722,342.963 z "
   id="path2517"
   style="fill:#ffffff;fill-rule:evenodd;stroke:#452f25;stroke-width:0.21600001;stroke-miterlimit:2.41420007" />
		
			<path
   clip-rule="evenodd"
   stroke-miterlimit="2.4142"
   d="M 132.359,307.072 C 138.866,310.703 131.149,300.592 148.933,304.372 C 151.068,304.825 155.228,305.063 158.994,306.369 C 171.019,310.538 182.161,317.061 193.044,323.469 C 206.621,331.462 241.561,334.94 234.838,336.824 C 234.241,336.992 210.297,332.534 184.123,330.215 C 172.227,329.16 161.478,330.72 155.44,330.641 C 144.601,330.499 147.204,329.208 146.526,327.852 C 142.278,319.352 132.832,317.461 132.359,307.072 L 132.359,307.072 z "
   id="path2519"
   style="fill:url(#linearGradient13699);fill-opacity:1;fill-rule:evenodd;stroke:#452f25;stroke-width:0.21600001;stroke-miterlimit:2.41420007" />
		
			<path
   clip-rule="evenodd"
   stroke-miterlimit="2.4142"
   d="M 161.167,312.267 L 81.829,290.543 C 70.919,287.556 57.847,284.484 51.447,284.367 C 42.092,284.197 43.743,290.314 40.788,292.381 C 37.801,294.468 40.813,294.471 40.962,297.361 C 41.135,300.736 41.025,300.442 41.19,303.318 C 41.552,309.647 34.967,313.654 67.663,319.822 C 84.152,322.933 132.201,332.413 154.518,329.842 C 166.206,328.496 165.388,323.63 161.167,312.267 L 161.167,312.267 z "
   id="path2521"
   style="fill:url(#linearGradient13707);fill-opacity:1;fill-rule:evenodd;stroke:#452f25;stroke-width:0.21600001;stroke-miterlimit:2.41420007" />
		
			<path
   clip-rule="evenodd"
   stroke-miterlimit="2.4142"
   d="M 40.507,313.211 C 49.56,322.001 73.06,307.094 60.341,290.07 C 46.618,271.701 23.426,296.627 40.507,313.211 L 40.507,313.211 z "
   id="path2523"
   style="fill:url(#linearGradient13717);fill-opacity:1;fill-rule:evenodd;stroke:#452f25;stroke-width:0.21600001;stroke-miterlimit:2.41420007" />
	</g>
</g>




<path
   sodipodi:type="arc"
   style="fill:url(#linearGradient3809);fill-opacity:1;stroke:#000000;stroke-opacity:0"
   id="path3801"
   sodipodi:cx="172.84763"
   sodipodi:cy="276.43906"
   sodipodi:rx="10.882998"
   sodipodi:ry="12.483439"
   d="M 183.73062 276.43906 A 10.882998 12.483439 0 1 1  161.96463,276.43906 A 10.882998 12.483439 0 1 1  183.73062 276.43906 z"
   transform="matrix(1.9032704,0,0,1.9078133,-159.87906,-292.99594)" /><path
   transform="matrix(1.9032704,0,0,1.9078133,-86.773341,-290.55327)"
   d="M 183.73062 276.43906 A 10.882998 12.483439 0 1 1  161.96463,276.43906 A 10.882998 12.483439 0 1 1  183.73062 276.43906 z"
   sodipodi:ry="12.483439"
   sodipodi:rx="10.882998"
   sodipodi:cy="276.43906"
   sodipodi:cx="172.84763"
   id="path3813"
   style="fill:url(#linearGradient3815);fill-opacity:1;stroke:#000000;stroke-opacity:0"
   sodipodi:type="arc" /><path
   style="fill:url(#linearGradient4796);fill-opacity:1;fill-rule:evenodd;stroke:#000000;stroke-width:1.92451108px;stroke-linecap:butt;stroke-linejoin:miter;stroke-opacity:0"
   d="M 114.90631,155.0208 C 137.69496,155.0208 159.86212,158.68421 182.65081,158.68421 C 186.68386,158.68421 190.72812,159.90532 195.08099,159.90532 C 198.74096,159.90532 200.99114,160.0608 203.16061,161.12643 C 205.86683,162.45575 205.40081,179.18825 205.02515,180.66455 C 202.32433,203.7671 200.79336,225.46603 195.70251,248.43736 C 188.42856,264.13999 187.80222,268.66628 187.00138,267.97549 C 173.37988,267.10657 162.21978,264.46332 150.33232,257.59586 C 112.00255,236.52117 112.24356,190.3266 114.90631,155.0208 z "
   id="path3819"
   sodipodi:nodetypes="ccssccccc" /><path
   style="opacity:0;fill:none;fill-rule:evenodd;stroke:#000000;stroke-width:1.90554047px;stroke-linecap:butt;stroke-linejoin:miter;stroke-opacity:1"
   d="M 219.66146,272.87032 C 219.86456,272.87032 220.06761,272.87032 220.27069,272.87032 C 268.16333,279.63339 293.62875,233.7045 308.60678,192.26207 C 309.32696,188.6526 308.66694,185.60502 306.77913,183.7127 C 280.83465,172.37713 252.05641,163.51094 223.92597,164.782 C 215.32159,195.7786 208.49042,242.60024 219.66146,272.87032 z "
   id="path4798"
   sodipodi:nodetypes="cccccc" /><path
   style="opacity:1;fill:url(#linearGradient4816);fill-opacity:1;fill-rule:evenodd;stroke:#000000;stroke-width:2.0433085px;stroke-linecap:butt;stroke-linejoin:miter;stroke-opacity:0"
   d="M 97.886277,109.39538 C 93.611707,106.88922 86.637777,110.39722 85.416469,103.75749 C 83.20776,91.749714 87.084457,76.511522 94.154059,70.807996 C 173.45004,75.053305 269.69511,76.549397 349.35604,137.50465 C 349.67087,150.34758 351.24526,172.83616 336.66663,173.26236 C 336.70934,170.20903 278.86479,148.72895 277.66326,147.6747 C 131.20299,93.089327 117.67469,118.74282 97.886277,109.39538 z "
   id="path4808"
   sodipodi:nodetypes="csccccc" /><path
   style="fill:url(#linearGradient7747);fill-opacity:1;fill-rule:evenodd;stroke:#000000;stroke-width:1.90554047px;stroke-linecap:butt;stroke-linejoin:miter;stroke-opacity:0"
   d="M 312.35464,183.58447 C 312.03971,187.42438 331.66925,197.96959 332.42573,203.14274 C 333.13219,207.9737 330.55021,220.73626 328.81482,227.34776 C 327.5028,232.34623 325.79003,242.62016 323.44757,249.79014 C 307.92464,297.30429 298.2945,334.99761 281.44829,364.35109 C 261.02748,376.46551 193.02802,383.88654 179.31765,380.75978 C 219.62273,327.24327 224.25577,245.47695 312.35464,183.58447 z "
   id="path5793"
   sodipodi:nodetypes="csssccc" /><path
   style="fill:url(#linearGradient8726);fill-opacity:1;fill-rule:evenodd;stroke:#000000;stroke-width:1.90554047px;stroke-linecap:butt;stroke-linejoin:miter;stroke-opacity:0"
   d="M 113.44422,151.46981 C 109.93684,156.22484 85.86255,169.61755 84.151225,184.28721 C 86.879935,217.50664 100.71778,276.20732 95.351484,298.28449 C 115.9867,302.36987 126.81617,300.79836 130.67543,299.14809 C 113.83757,267.82202 117.0479,198.82883 113.44422,151.46981 z "
   id="path7749"
   sodipodi:nodetypes="ccccc" /><path
   style="fill:url(#linearGradient8736);fill-opacity:1;fill-rule:evenodd;stroke:#000000;stroke-width:1.90554047px;stroke-linecap:butt;stroke-linejoin:miter;stroke-opacity:0"
   d="M 103.96709,325.92019 C 109.16664,325.81558 131.18408,326.47944 135.8448,327.64741 C 134.09584,342.08128 160.40194,354.39131 168.58403,369.10097 C 158.36608,367.6165 133.96712,358.01762 126.36763,350.96504 C 117.16112,343.48198 115.60007,330.64991 103.96709,325.92019 z "
   id="path8728"
   sodipodi:nodetypes="ccccc" /><path
   style="fill:url(#linearGradient11687);fill-opacity:1;fill-rule:evenodd;stroke:#000000;stroke-width:1.90554047px;stroke-linecap:butt;stroke-linejoin:miter;stroke-opacity:0"
   d="M 156.09144,590.6184 C 185.72145,600.8283 203.88773,605.12746 236.21644,596.2319 C 234.31567,615.15396 210.51552,659.58375 190.5538,664.88936 C 163.40342,639.53812 161.46275,617.12724 156.09144,590.6184 z "
   id="path9707"
   sodipodi:nodetypes="cccc" /></svg>